<svg xmlns="http://www.w3.org/2000/svg" width="230.555" height="66.819" viewBox="0 0 230.555 66.819">
  <g id="Group_17" data-name="Group 17" transform="translate(-93.881 -392.228)">
    <path id="Path_27" data-name="Path 27" d="M247.144,405.1,234.776,419.21l-9.509-5.266-.014-.007-.022-.051-23.057.407h-.007l-18.931-6.208-.012,0L171.063,393.6a3.827,3.827,0,0,0-4.45-1.065l-8.321,3.387-.075.031-1.429,5.4,0,.017-8.051,4.38.679.9a12.233,12.233,0,0,0,9.7,4.823H162.4l9.33,8.926.014.014-.082.985v.01a9.787,9.787,0,0,0,2.438,6.348l.007.01,3.226,20.14-.041.01a4.417,4.417,0,0,0-2.443,1.53,4.361,4.361,0,0,0-.971,2.556l-.007.166h4.107l1.947-.313-2.9-18.128,2.243,2.751,3.281,16.107-.041.01A4.4,4.4,0,0,0,179,456.707l-.01.166,9.391.012,1.5-18.205,22.621-5.481,7.288,10.887.017.024a9.524,9.524,0,0,0,7.189,3.51c.157,0,.318,0,.479-.014h.019l.012.012a33.243,33.243,0,0,0,3.269,2.539l.145.1a39.922,39.922,0,0,0,3.929,2.325l.159.082h-4.156v-2.428l-.166.007a4.408,4.408,0,0,0-4.194,4.192l-.007.166h12.78l1.062,0,1.084,2.57h-5.912v-2.489l-.166.007a4.41,4.41,0,0,0-4.192,4.192l-.01.166h13.187l-.571-1.325-13.219-31.306-.019-.046,15.066-4.011Zm-86.079,4.442h-1.949a10.3,10.3,0,0,1-7.384-3.151l-.041-.041,5.575-3.033Zm5.823-4.385a.58.58,0,0,1-.5.157l-.036,0-.089-10.511v-.029l1.1-.451a1.9,1.9,0,0,1,2.214.528l3.534,4.209Zm6.372-3.532-1.318,16.3-8.391-8.027,0,0-4.893-8.018,1.185-4.476,4.5-1.838.092,10.682.279.282a2.522,2.522,0,0,0,3.537.017ZM233.468,420.7l-3.616,4.124-3.378-8ZM219.31,431.549l0,.051a22.319,22.319,0,0,0,.879,4.881,23.2,23.2,0,0,0,5.049,8.892l.1.108-.14-.036a7.8,7.8,0,0,1-3.84-2.486L214.5,432.715Zm2.438-5.95.308-1.007-4.609-1.012.06,2.007,2.142.463-.01.041a20.685,20.685,0,0,0-.371,3.443v.034l-28.191,6.83-.1.024,6.1-10.5-1.352-1.407-5.353,9.145-.094.161,1.111-13.525-1.93-.159-.212,2.585,0,0a7.909,7.909,0,0,1-15.666-.793l-.007-.068.106.039.046.017a2.809,2.809,0,0,0,.841.13,2.648,2.648,0,0,0,2.293-1.335l6.23-10.607.017-.031,17.526,5.748-1.937,3.638,1.349,1.407,2.558-4.625.012-.022,21.32-.378h.029l15.471,36.647.041.1-.1-.041c-9.2-3.821-15.175-9.533-17.295-16.517a19.721,19.721,0,0,1-.33-10.431m-47.384-13.607.846-10.441,6.249,7.439.019.024-6.3,10.72a.7.7,0,0,1-.626.376.837.837,0,0,1-.506-.169l0,0-.116-.113,0,0a.693.693,0,0,1-.152-.417l0,0,.6-7.413Zm14.455,15.883L186.6,454.908l0,.041h-1.585L181.07,435.63l-5.023-6.162.224.14a9.768,9.768,0,0,0,12.469-1.766l.087-.1Zm55.857-17.018-.913,9.978-10.224,2.722Z" transform="translate(77.292 0)" fill="#040d44"/>
    <path id="Path_28" data-name="Path 28" d="M185.374,425.058A9.541,9.541,0,0,0,183.851,420a33.957,33.957,0,0,0-53.137-9.81l-.275-8.649-10.128,10.583h-8.039l-9.885-10.634-.764,23.843a8.785,8.785,0,0,0-5.127,2.411,8.265,8.265,0,0,0-2.616,6v.995h9.364a8.131,8.131,0,0,0-.39,2.486h1.988a6.07,6.07,0,0,1,.535-2.486h21.906a6.074,6.074,0,0,1,.544,2.505h1.985a8.112,8.112,0,0,0-.4-2.505h6.495a3.937,3.937,0,0,0,3.4,5.91v0h36.852a9.22,9.22,0,0,0,9.21-9.21v-6.389Zm-81.177,7.7H95.95a6.74,6.74,0,0,1,5.666-5.416,8.052,8.052,0,0,0,2.255,4.934c.128.13.26.258.4.378l-.07.1m23.354-1.838c-.111.118-.229.226-.349.332l0,0a8.774,8.774,0,0,0-6.09-2.464v1.985a6.8,6.8,0,0,1,4.324,1.571,6.035,6.035,0,0,1-2.221.419h-5.888v-2h1.785v-1.988h-5.558v1.988h1.788v2H109.7a6.105,6.105,0,0,1-2.407-.489,6.806,6.806,0,0,1,4.267-1.518v-1.987a8.773,8.773,0,0,0-6,2.383c-.087-.082-.173-.166-.258-.253a6.074,6.074,0,0,1-1.725-4.459l.641-20.051,7.189,7.733h9.754l7.444-7.781.646,20.191a5.981,5.981,0,0,1-1.7,4.394m.947,1.838c.166-.145.325-.3.479-.455a7.956,7.956,0,0,0,2.257-5.84l-.434-13.6a31.97,31.97,0,0,1,48.346,3.356,9.563,9.563,0,0,0-12.9,8.964v.106h-6.394a8.476,8.476,0,0,0-8.408,7.473Zm10.817,5.917v.01a1.973,1.973,0,0,1-.154-3.939h4.206l3.929,3.929Zm14.134-3.929v-1.987h0a6.494,6.494,0,0,1,6.406-5.488h8.386v-1.985h0v-.106a7.579,7.579,0,1,1,7.579,7.579H163.434v1.987h12.376A9.553,9.553,0,0,0,183.391,431v.446a7.234,7.234,0,0,1-7.225,7.225H150.08l-3.929-3.929Z" transform="translate(0 12.902)" fill="#040d44"/>
  </g>
</svg>
