<svg xmlns="http://www.w3.org/2000/svg" width="91.495" height="39.273" viewBox="93.881 414.286 91.495 39.273"><path d="M185.374 437.96a9.54 9.54 0 0 0-1.523-5.057 33.908 33.908 0 0 0-6.288-8.665 33.86 33.86 0 0 0-10.8-7.28 33.745 33.745 0 0 0-13.226-2.672c-4.678 0-9.207.932-13.466 2.773a33.88 33.88 0 0 0-9.357 6.034l-.275-8.648-10.128 10.583h-8.039l-9.884-10.634-.764 23.843a8.785 8.785 0 0 0-5.127 2.411c-1.686 1.615-2.616 3.747-2.616 6.001v.995h9.364a8.13 8.13 0 0 0-.39 2.487h1.987c0-.875.19-1.718.535-2.487h21.906c.35.774.545 1.622.545 2.506h1.985c0-.86-.135-1.703-.395-2.506h6.494a3.915 3.915 0 0 0-.53 1.966 3.95 3.95 0 0 0 3.932 3.944v.005h36.852c5.078 0 9.21-4.132 9.21-9.21v-6.39h-.002Zm-81.177 7.697H95.95c.46-2.756 2.802-4.997 5.667-5.416a8.052 8.052 0 0 0 2.65 5.312l-.07.104m23.354-1.838c-.111.118-.23.226-.35.332l-.002-.005a8.774 8.774 0 0 0-6.09-2.464v1.985c1.63 0 3.146.597 4.324 1.57a6.035 6.035 0 0 1-2.221.42h-5.888v-2.004h1.785v-1.988h-5.558v1.988h1.788v2.004H109.702a6.105 6.105 0 0 1-2.407-.49 6.806 6.806 0 0 1 4.266-1.517v-1.987a8.773 8.773 0 0 0-6.003 2.382 8.477 8.477 0 0 1-.258-.253 6.074 6.074 0 0 1-1.725-4.459l.641-20.05 7.189 7.732h9.754l7.444-7.781.646 20.19a5.981 5.981 0 0 1-1.698 4.395m.946 1.838a7.956 7.956 0 0 0 2.737-6.295l-.434-13.604c6.054-6.12 14.115-9.487 22.737-9.487 10.463 0 19.77 5.052 25.61 12.843a9.52 9.52 0 0 0-3.338-.603c-5.273 0-9.566 4.293-9.566 9.567v.106h-6.394c-4.334 0-7.916 3.271-8.407 7.473h-22.945Zm10.817 5.917v.01a1.976 1.976 0 0 1-1.96-1.974c0-1.03.797-1.881 1.806-1.966h4.206l3.93 3.93h-7.982Zm14.134-3.93v-1.987h-.005c.48-3.103 3.17-5.488 6.406-5.488h8.386v-1.985h-.005v-.106c0-4.18 3.4-7.58 7.58-7.58s7.579 3.4 7.579 7.58-3.4 7.579-7.58 7.579h-12.375v1.987h12.375a9.553 9.553 0 0 0 7.582-3.74v.445c0 3.982-3.24 7.225-7.225 7.225H150.08l-3.929-3.93h7.297Z" fill="#fff" fill-rule="evenodd" data-name="Path 28"/></svg>