<svg xmlns="http://www.w3.org/2000/svg" width="98.411" height="66.819" viewBox="226.025 392.228 98.411 66.819"><path d="m324.436 405.102-12.368 14.108-9.509-5.266-.014-.008-.022-.05-23.057.407h-.008l-18.93-6.208-.012-.005-12.161-14.476a3.828 3.828 0 0 0-4.45-1.065l-8.321 3.387-.075.031-1.428 5.404-.005.017-8.051 4.38.679.898a12.233 12.233 0 0 0 9.704 4.823h3.286l9.33 8.926.015.014-.082.986v.01a9.787 9.787 0 0 0 2.438 6.347l.007.01 3.226 20.14-.041.01a4.417 4.417 0 0 0-2.443 1.53 4.361 4.361 0 0 0-.97 2.555l-.008.166h4.107l1.947-.313-2.903-18.128 2.243 2.751 3.281 16.107-.04.01a4.402 4.402 0 0 0-3.513 4.107l-.01.167 9.39.012 1.497-18.206 22.621-5.48 7.288 10.886.016.024c.109.145 2.701 3.51 7.19 3.51.156 0 .317-.004.479-.014h.019l.012.012c1 .886 2.1 1.74 3.27 2.54l.144.095c1.211.82 2.534 1.6 3.929 2.325l.159.082h-4.156v-2.428l-.166.007a4.386 4.386 0 0 0-2.954 1.332 4.4 4.4 0 0 0-1.24 2.86l-.007.166h12.78l1.062.003 1.084 2.57h-5.912v-2.489l-.166.008a4.392 4.392 0 0 0-2.905 1.286 4.398 4.398 0 0 0-1.287 2.905l-.01.167h13.188l-.57-1.325-13.22-31.307-.019-.045 15.067-4.011 1.575-17.257Zm-86.08 4.443h-1.948c-2.766 0-5.46-1.15-7.384-3.151l-.041-.041 5.575-3.034 3.799 6.226Zm5.824-4.385a.58.58 0 0 1-.497.157l-.036-.005-.089-10.511v-.029l1.101-.45a1.9 1.9 0 0 1 2.214.527l3.534 4.209-6.227 6.102Zm6.372-3.532-1.318 16.298-8.391-8.027-.005-.005-4.893-8.018 1.186-4.476 4.497-1.838.092 10.682.28.282a2.495 2.495 0 0 0 1.777.732c.663 0 1.29-.255 1.759-.715l5.016-4.915Zm60.208 19.073-3.616 4.124-3.378-8 6.994 3.876ZM296.6 431.55l.003.05a22.32 22.32 0 0 0 .88 4.882c.96 3.235 2.661 6.225 5.049 8.892l.096.108-.14-.036c-2.32-.626-3.688-2.296-3.84-2.486l-6.859-10.244 4.811-1.166Zm2.438-5.95.309-1.007-4.609-1.012.06 2.007 2.142.462-.01.041a20.685 20.685 0 0 0-.37 3.443v.034l-28.192 6.83-.1.023 6.094-10.498-1.351-1.407-5.353 9.145-.094.161 1.11-13.525-1.93-.159-.211 2.585-.003.003a7.905 7.905 0 0 1-7.781 6.495c-4.1 0-7.565-3.202-7.885-7.288l-.007-.067.106.038.045.017c.277.087.56.13.841.13.944 0 1.802-.499 2.294-1.334l6.23-10.608.016-.031 17.527 5.748-1.937 3.638 1.349 1.407 2.558-4.626.012-.021 21.32-.379h.03l15.47 36.648.042.096-.097-.041c-9.195-3.82-15.174-9.533-17.295-16.517-1.73-5.693-.344-10.385-.33-10.431m-47.384-13.607.846-10.44 6.249 7.439.019.024-6.297 10.72c-.145.246-.362.376-.627.376a.796.796 0 0 1-.253-.039.803.803 0 0 1-.253-.13l-.002-.002-.116-.113-.004-.003a.693.693 0 0 1-.152-.417l-.003-.002.605-7.413h-.012Zm14.455 15.883-2.222 27.033-.004.04h-1.586l-3.936-19.318-5.023-6.162.224.14a9.744 9.744 0 0 0 5.187 1.49 9.804 9.804 0 0 0 7.282-3.256l.087-.097-.01.13Zm55.857-17.017-.913 9.978-10.224 2.722 11.137-12.7Z" fill="#fff" fill-rule="evenodd" data-name="Path 27"/></svg>