<svg xmlns="http://www.w3.org/2000/svg" width="129.405" height="120.812" viewBox="597.467 465.361 129.405 120.812"><g data-name="CompositeLayer"><g data-name="Group 4"><path d="M619.84 538.539h1.145c3.72 0 8.423.641 8.423 6.81 0 5.596-3.687 6.69-8.352 6.69h-15.724c-4.869 0-7.865-2.158-7.865-6.754 0-5.57 3.795-6.607 8-6.607h1.317v4.194h-1.745c-2.232 0-3.774.442-3.774 2.44 0 1.929 1.43 2.482 3.815 2.482h16.302c2.485 0 4.26-.52 4.26-2.556 0-2.022-1.676-2.473-4.247-2.473h-1.554v-4.226Z" fill="#fff" fill-rule="evenodd" data-name="Path 9"/><path d="M614.421 525.178v6.888h10.719v-7.888l3.831.54v11.513h-31.067v-11.44h3.864v7.275h8.822v-6.888h3.831Z" fill="#fff" fill-rule="evenodd" data-name="Path 10"/><path d="M597.904 522.386v-4.166h27.334v-7.813l3.733.39v11.59h-31.067Z" fill="#fff" fill-rule="evenodd" data-name="Path 11"/><path d="M597.904 509.039v-4.166h27.334v-7.814l3.733.391v11.589h-31.067Z" fill="#fff" fill-rule="evenodd" data-name="Path 12"/></g><g data-name="Group 8"><g data-name="Group 5"><path d="m713.354 476.847-.731 1.532h7.292l-.731-1.532h-5.83Z" fill="#fff" fill-rule="evenodd" data-name="Path 13"/></g><g data-name="Group 6"><path d="m653.118 476.843-.732 1.533h7.292l-.73-1.533h-5.83Z" fill="#fff" fill-rule="evenodd" data-name="Path 14"/></g><path d="m634.799 483.01-8.416-17.644h-1.698l9.265 19.424.849-1.78Z" fill="#fff" fill-rule="evenodd" data-name="Path 15"/><g data-name="Group 7"><path d="M696.273 465.366h9.04v1.532h-9.04v-1.532z" fill="#fff" fill-rule="evenodd" data-name="Rectangle 6"/></g></g><g data-name="Group 9"><path d="M617.377 465.366h1.533v23h-1.533v-23z" fill="#fff" fill-rule="evenodd" data-name="Rectangle 7"/><path d="M673.441 486.832v-21.466h-1.533v22.999h13.658v-1.533H673.44Z" fill="#fff" fill-rule="evenodd" data-name="Path 16"/><path d="m644.926 465.366-7.2 15.094-2.918 6.129.846 1.775.85-1.78 10.12-21.218h-1.698Z" fill="#fff" fill-rule="evenodd" data-name="Path 17"/><path d="m656.032 467.171-.849-1.78-.849 1.78-10.105 21.186 1.695.007 9.26-19.413 9.262 19.42 1.695-.006-10.109-21.194Z" fill="#fff" fill-rule="evenodd" data-name="Path 18"/><path d="m716.269 467.175-.85-1.78-.848 1.78-10.106 21.186 1.695.007 9.26-19.413 9.263 19.42 1.695-.006-10.11-21.194Z" fill="#fff" fill-rule="evenodd" data-name="Path 19"/><path d="M682.616 465.366v1.532h10.592v21.46h1.532v-22.992h-12.124Z" fill="#fff" fill-rule="evenodd" data-name="Path 20"/><path d="M599.408 486.832v-21.466h-1.533v22.999h13.657v-1.533h-12.124Z" fill="#fff" fill-rule="evenodd" data-name="Path 21"/></g><g data-name="Group 10"><path d="M724.484 465.364v.293l-.527-.001v1.235h-.315v-1.236h-.525v-.294l1.367.003Z" fill="#fff" fill-rule="evenodd" data-name="Path 22"/><path d="M726.11 465.366h.268v1.53l-.315-.001v-.938l-.508.723-.507-.725v.938h-.314v-1.53l.268.001.551.8.556-.798Z" fill="#fff" fill-rule="evenodd" data-name="Path 23"/></g><g data-name="Group 14"><g data-name="Group 11"><path d="M646.121 551.832h-7.966v-54.568h11.45c8.625 0 12.817 4.479 12.817 13.694v3.215c0 10.134-4.21 14.854-13.252 14.854h-3.049v22.805Zm-7.217-.748h6.47V528.28h3.796c8.648 0 12.504-4.35 12.504-14.106v-3.215c0-8.833-3.835-12.946-12.068-12.946h-10.702v53.072Zm9.508-28.016h-3.039v-19.79h3.676c5.453 0 6.189 4.017 6.189 7.946v2.747c0 4.794-.522 9.097-6.826 9.097Zm-2.29-.748h2.29c5.137 0 6.077-2.812 6.077-8.35v-2.746c0-4.32-.925-7.197-5.44-7.197h-2.928v18.293Z" fill="#fff" fill-rule="evenodd" data-name="Path 24"/></g><g data-name="Group 12"><path d="M680.266 552.59c-4.47 0-7.755-1.37-9.764-4.071-1.664-2.236-2.473-5.331-2.473-9.462v-3.524h7.966v3.613c0 4.442 1.421 6.51 4.473 6.51 2.938 0 4.248-2.183 4.248-7.08 0-5.774-1.095-7.724-6.89-12.273-5.712-4.492-8.943-7.432-8.943-15.627 0-5.187 1.19-9.003 3.537-11.344 1.918-1.912 4.634-2.882 8.072-2.882h.05c7.588.02 11.277 4.272 11.277 13v3.09h-7.91v-2.896c0-4.524-.95-6.205-3.506-6.205-2.491 0-3.555 1.85-3.555 6.188 0 4.165.723 5.912 5.504 9.462 7.793 5.813 10.386 9.292 10.386 18.43 0 10-4.196 15.07-12.472 15.07Zm-11.489-16.31v2.777c0 8.603 3.758 12.785 11.49 12.785 7.778 0 11.722-4.82 11.722-14.323 0-8.885-2.393-12.093-10.083-17.83-5.005-3.716-5.806-5.676-5.806-10.062 0-2.977.447-6.936 4.303-6.936 3.74 0 4.255 3.342 4.255 6.953v2.149h6.413v-2.343c0-8.34-3.347-12.233-10.531-12.252h-.047c-3.234 0-5.771.896-7.544 2.664-2.201 2.195-3.317 5.833-3.317 10.814 0 7.864 2.968 10.565 8.655 15.039 5.97 4.685 7.177 6.849 7.177 12.86 0 5.269-1.634 7.83-4.996 7.83-3.513 0-5.222-2.375-5.222-7.26v-2.865h-6.469Z" fill="#fff" fill-rule="evenodd" data-name="Path 25"/></g><g data-name="Group 13"><path d="M716.435 551.832h-7.966v-19.87c0-.612-.076-.96-.258-1.56l-10.122-33.138h8.762l.206.793c2.127 8.198 4.509 17.38 5.58 23.067.922-4.48 2.512-10.813 4.055-16.963.563-2.242 1.123-4.476 1.65-6.613l.07-.284h8.46l-10.288 33.688c-.078.371-.149.846-.149 1.77v19.11Zm-7.218-.748h6.47v-18.363c0-1.006.081-1.527.17-1.94l.007-.031 9.997-32.738h-6.863c-.506 2.05-1.042 4.187-1.58 6.331-1.758 7.003-3.575 14.244-4.393 18.69l-.056.306h-.712l-.05-.317c-.835-5.353-3.512-15.672-5.874-24.777l-.06-.233H699.1l9.827 32.173c.2.66.29 1.074.29 1.778v19.121Z" fill="#fff" fill-rule="evenodd" data-name="Path 26"/></g></g><g data-name="Group 18"><path d="M610.992 586.174c-7.233 0-13.117-5.884-13.117-13.117 0-7.233 5.884-13.116 13.117-13.116 7.232 0 13.116 5.883 13.116 13.116s-5.884 13.117-13.116 13.117Zm0-24.587c-6.325 0-11.47 5.146-11.47 11.47 0 6.325 5.145 11.47 11.47 11.47 6.324 0 11.47-5.145 11.47-11.47 0-6.324-5.146-11.47-11.47-11.47Z" fill="#fff" fill-rule="evenodd" data-name="Path 29"/><path d="M636.56 586.174c-7.233 0-13.118-5.884-13.118-13.117 0-7.233 5.885-13.116 13.117-13.116 7.233 0 13.117 5.883 13.117 13.116s-5.884 13.117-13.117 13.117Zm0-24.587c-6.326 0-11.471 5.146-11.471 11.47 0 6.325 5.145 11.47 11.47 11.47 6.325 0 11.47-5.145 11.47-11.47 0-6.324-5.145-11.47-11.47-11.47Z" fill="#fff" fill-rule="evenodd" data-name="Path 30"/><path d="M662.126 586.174c-7.232 0-13.116-5.884-13.116-13.117 0-7.233 5.884-13.116 13.116-13.116 7.233 0 13.117 5.883 13.117 13.116s-5.884 13.117-13.117 13.117Zm0-24.587c-6.324 0-11.47 5.146-11.47 11.47 0 6.325 5.146 11.47 11.47 11.47 6.325 0 11.47-5.145 11.47-11.47 0-6.324-5.145-11.47-11.47-11.47Z" fill="#fff" fill-rule="evenodd" data-name="Path 31"/><path d="M687.694 586.174c-7.233 0-13.117-5.884-13.117-13.117 0-7.233 5.884-13.116 13.117-13.116 7.232 0 13.116 5.883 13.116 13.116s-5.884 13.117-13.116 13.117Zm0-24.587c-6.325 0-11.47 5.146-11.47 11.47 0 6.325 5.145 11.47 11.47 11.47 6.324 0 11.47-5.145 11.47-11.47 0-6.324-5.146-11.47-11.47-11.47Z" fill="#fff" fill-rule="evenodd" data-name="Path 32"/><path d="M713.261 586.174c-7.232 0-13.117-5.884-13.117-13.117 0-7.233 5.885-13.116 13.117-13.116 7.233 0 13.117 5.883 13.117 13.116s-5.884 13.117-13.117 13.117Zm0-24.587c-6.325 0-11.47 5.146-11.47 11.47 0 6.325 5.145 11.47 11.47 11.47 6.325 0 11.47-5.145 11.47-11.47 0-6.324-5.145-11.47-11.47-11.47Z" fill="#fff" fill-rule="evenodd" data-name="Path 33"/></g></g></svg>