<svg id="b8dd5f3b-8bca-48b4-a3db-1da1cd29ac6a" data-name="rainbow" xmlns="http://www.w3.org/2000/svg" viewBox="0 0 1118.28 654.84"><defs><style>.a2a0d89c-2311-40c8-b1df-cd22ae934361{fill:#008265;}.f4cc3f77-84b5-4137-9b19-f665c8c4de2b{fill:none;}.e26499be-f885-46a5-86a9-edac0fbd7337{fill:#00539b;}.fb4dbd3f-3a4d-42ef-8998-1ee2bedfb374{fill:#5091cd;}.f3176958-24a0-437a-aa0f-6fb1e47f1d95{fill:#6cb33f;}.bb4d6d69-bcd6-48c9-bf24-b4827e80baeb{fill:#f8971d;}.bccb7439-cdbc-47a0-a36d-c0fadfb9f0d0{fill:#fdb913;}.a6cf3f5b-1fef-43a2-8289-37c16a02b15c{fill:#ed174f;}</style></defs><path class="a2a0d89c-2311-40c8-b1df-cd22ae934361" d="M192.77,530.13h46.7V716.68h-46.7V696.91q-13.72,13-27.48,18.69a77.47,77.47,0,0,1-29.88,5.72q-36.14,0-62.49-28T46.57,623.75q0-43.14,25.5-70.7t62-27.56a79,79,0,0,1,31.51,6.32,86.59,86.59,0,0,1,27.22,19Zm-49.21,38.63q-21.66,0-36,15.31T93.26,623.29q0,24.12,14.57,39.67a47.22,47.22,0,0,0,35.89,15.58q22,0,36.49-15.32t14.53-40.09q0-24.28-14.53-39.33T143.56,568.76Z" transform="translate(-46.57 -134.58)"/><path class="a2a0d89c-2311-40c8-b1df-cd22ae934361" d="M308.92,458.25v92.66a87.48,87.48,0,0,1,27.42-19.08,78.54,78.54,0,0,1,31.51-6.34q36.47,0,62,27.56t25.51,70.7q0,41.61-26.37,69.58t-62.54,28a78.07,78.07,0,0,1-29.94-5.72q-13.9-5.72-27.59-18.69v19.77H262.47V458.25Zm49.15,110.51q-22.08,0-36.58,15T307,623.13q0,24.79,14.53,40.09t36.58,15.32a47.36,47.36,0,0,0,36-15.58q14.58-15.56,14.61-39.67,0-23.92-14.35-39.22T358.07,568.76Z" transform="translate(-46.57 -134.58)"/><path class="a2a0d89c-2311-40c8-b1df-cd22ae934361" d="M776.85,530V716.56H753.13V684.48Q738,702.86,719.26,712a92.43,92.43,0,0,1-41.08,9.18q-39.6,0-67.64-28.66t-28-69.76q0-40.24,28.31-68.81t68.07-28.6q23,0,41.57,9.69t32.68,29.24V530Zm-96,18.59A72.2,72.2,0,0,0,617,586a75.33,75.33,0,0,0,.08,75.22,73.58,73.58,0,0,0,27.08,28,70.92,70.92,0,0,0,36.52,10,74.71,74.71,0,0,0,37.31-9.9,69.09,69.09,0,0,0,27.12-26.83c6.36-11.28,9.5-24,9.5-38.11q0-32.33-21.28-54T680.84,548.59Z" transform="translate(-46.57 -134.58)"/><path class="a2a0d89c-2311-40c8-b1df-cd22ae934361" d="M968.75,530h23.94V678.55q0,39.23-6.85,57.41a74.56,74.56,0,0,1-32.73,39.56q-23.31,13.89-56,13.89-24,0-43.11-6.79t-31.08-18.21q-12-11.43-22.1-33.45h26.15q10.63,18.59,27.42,27.51t41.69,8.94q24.5,0,41.4-9.13t24.1-22.95q7.22-13.83,7.2-44.66v-9.62a90.63,90.63,0,0,1-33.14,26.33,98.26,98.26,0,0,1-89.91-3.59,90.62,90.62,0,0,1-35-34.35A93.62,93.62,0,0,1,798.34,622a95.1,95.1,0,0,1,12.88-48.23,94.15,94.15,0,0,1,35.61-35.38,95.18,95.18,0,0,1,47.93-13,90,90,0,0,1,39,8.57q18.12,8.61,34.94,28.47Zm-70.86,18.59a75.73,75.73,0,0,0-37.8,9.83,71,71,0,0,0-27.38,27.19,74.28,74.28,0,0,0-9.92,37.54q0,30.63,20.5,50.63t53.21,20q33.09,0,53.09-19.83,20.16-19.85,20.14-52.19,0-21-9.24-37.54a67.44,67.44,0,0,0-26.19-26.09A72.74,72.74,0,0,0,897.89,548.59Z" transform="translate(-46.57 -134.58)"/><path class="a2a0d89c-2311-40c8-b1df-cd22ae934361" d="M1135.59,530.68h24V717.23h-24Z" transform="translate(-46.57 -134.58)"/><path class="a2a0d89c-2311-40c8-b1df-cd22ae934361" d="M1112.14,549.32c-1,0-2.05-.05-3.15,0a72.93,72.93,0,0,0-36.43,9.58A67.18,67.18,0,0,0,1046.41,585q-9.24,16.49-9.24,37.54v94.92h-23V530.71h24v32.38q16.81-19.87,34.9-28.46a90.16,90.16,0,0,1,39.06-8.59Z" transform="translate(-46.57 -134.58)"/><path class="a2a0d89c-2311-40c8-b1df-cd22ae934361" d="M1130.26,463.91h11.16v3.79h-3.69v16.38h-3.92V467.7h-3.55Z" transform="translate(-46.57 -134.58)"/><path class="a2a0d89c-2311-40c8-b1df-cd22ae934361" d="M1144.57,463.91h3.7L1153,478l4.71-14.06h3.73l3.43,20.17h-3.75l-2.15-12.74-4.24,12.74h-3.44L1147,471.34l-2.19,12.74h-3.77Z" transform="translate(-46.57 -134.58)"/><path class="f4cc3f77-84b5-4137-9b19-f665c8c4de2b" d="M480.47,156a145.91,145.91,0,0,0-19.09,8.6,224.12,224.12,0,0,1,19.16,19.91q10.13-6.42,19.85-11.72A160.63,160.63,0,0,0,480.47,156Z" transform="translate(-46.57 -134.58)"/><path class="f4cc3f77-84b5-4137-9b19-f665c8c4de2b" d="M403.61,160.43q-6.44,4-13,9A138.23,138.23,0,0,1,413.24,192q6.19-5,12.33-9.48A192.68,192.68,0,0,0,403.61,160.43Z" transform="translate(-46.57 -134.58)"/><path class="f4cc3f77-84b5-4137-9b19-f665c8c4de2b" d="M437.65,145.89q3,1.79,5.82,3.88,7.63,5.7,14.58,11.84a169.07,169.07,0,0,1,18.07-8.48C465.89,147.19,450.47,143.85,437.65,145.89Z" transform="translate(-46.57 -134.58)"/><path class="f4cc3f77-84b5-4137-9b19-f665c8c4de2b" d="M155.08,503.39c26.6-32.15,152.86-182.83,266.83-275.91a218.5,218.5,0,0,0-15-24.49C302.05,291.78,180.53,466.12,155.08,503.39Z" transform="translate(-46.57 -134.58)"/><path class="f4cc3f77-84b5-4137-9b19-f665c8c4de2b" d="M530.56,156.7c-11.44-6.64-25-7.49-40-3.78A174.86,174.86,0,0,1,509.71,168a187.23,187.23,0,0,1,23.35-9.77C532.24,157.69,531.41,157.19,530.56,156.7Z" transform="translate(-46.57 -134.58)"/><path class="f4cc3f77-84b5-4137-9b19-f665c8c4de2b" d="M155.7,500c28.46-42.75,143.92-212.59,248.58-300.64a140.49,140.49,0,0,0-21.85-23.44C288.51,253.54,180.86,452.14,155.7,500Z" transform="translate(-46.57 -134.58)"/><path class="f4cc3f77-84b5-4137-9b19-f665c8c4de2b" d="M588.69,244.64c-11.26-37.35-24-64.6-50.56-83.12a165.78,165.78,0,0,0-24.78,9.83C632.47,285.5,558.05,544.48,485,685.91,580.16,537.81,620,348.77,588.69,244.64Z" transform="translate(-46.57 -134.58)"/><path class="f4cc3f77-84b5-4137-9b19-f665c8c4de2b" d="M503.78,176.25q-9.84,5.3-20.23,11.89c109.52,134.77,40.94,373.54-.82,497.27C553.62,545.62,610.26,288.37,503.78,176.25Z" transform="translate(-46.57 -134.58)"/><path class="f4cc3f77-84b5-4137-9b19-f665c8c4de2b" d="M344.73,141.66a71.8,71.8,0,0,0-7.08,2.48,115.43,115.43,0,0,1,23.26,7.75A110.94,110.94,0,0,1,377.1,143C366.83,138.78,356.63,138.22,344.73,141.66Z" transform="translate(-46.57 -134.58)"/><path class="f4cc3f77-84b5-4137-9b19-f665c8c4de2b" d="M633.3,249.07c-8.4-39.48-23.1-72.72-53.06-87.29-9-4.35-19.82-5-32.17-2.69,24.13,16.39,43,42.25,53.34,78.52,34,119.28-19.23,306.1-119,455.81C576.26,587.17,659.69,373.19,633.3,249.07Z" transform="translate(-46.57 -134.58)"/><path class="f4cc3f77-84b5-4137-9b19-f665c8c4de2b" d="M382.9,145.68A98.71,98.71,0,0,0,366,154.29a171.42,171.42,0,0,1,15.28,8.61c1.81,1.14,3.59,2.35,5.35,3.6q6.6-5.07,13.12-9.27A107.34,107.34,0,0,0,382.9,145.68Z" transform="translate(-46.57 -134.58)"/><path class="f4cc3f77-84b5-4137-9b19-f665c8c4de2b" d="M447.37,213.37q-6.71,5.07-13.52,10.45C501.64,352,489.56,602.87,478.88,686,495.5,599.64,529.62,352.24,447.37,213.37Z" transform="translate(-46.57 -134.58)"/><path class="f4cc3f77-84b5-4137-9b19-f665c8c4de2b" d="M451.28,170.36c-4.4,2.66-8.86,5.57-13.38,8.69a212.71,212.71,0,0,1,17.33,22.69q7.29-5.28,14.45-10.11A240.56,240.56,0,0,0,451.28,170.36Z" transform="translate(-46.57 -134.58)"/><path class="f4cc3f77-84b5-4137-9b19-f665c8c4de2b" d="M393.25,142.56a107.74,107.74,0,0,1,15.32,9.4,117.36,117.36,0,0,1,12.33-6A43.09,43.09,0,0,0,393.25,142.56Z" transform="translate(-46.57 -134.58)"/><path class="f4cc3f77-84b5-4137-9b19-f665c8c4de2b" d="M152.66,503.34C174,461.1,281.33,254.18,378.65,172.9c-2.46-1.89-5-3.68-7.53-5.33-4.56-2.92-8.92-5.53-13.12-7.84C265.32,227.46,170,459.56,152.66,503.34Z" transform="translate(-46.57 -134.58)"/><path class="f4cc3f77-84b5-4137-9b19-f665c8c4de2b" d="M436.56,156.46A75.57,75.57,0,0,0,426.39,149a105.56,105.56,0,0,0-13.66,6.14A190.07,190.07,0,0,1,435,175.82q6.67-4.59,13.21-8.56Q442.61,161.71,436.56,156.46Z" transform="translate(-46.57 -134.58)"/><path class="f4cc3f77-84b5-4137-9b19-f665c8c4de2b" d="M151.52,504C167.94,460.73,259,228.41,353.32,157.26a96.52,96.52,0,0,0-24.4-9C234,200.42,163.07,459.43,151.52,504Z" transform="translate(-46.57 -134.58)"/><path class="f4cc3f77-84b5-4137-9b19-f665c8c4de2b" d="M428.35,185.9c-4.09,3-8.23,6.26-12.39,9.61a200,200,0,0,1,15.65,24.17q6.7-5.31,13.33-10.32A224.15,224.15,0,0,0,428.35,185.9Z" transform="translate(-46.57 -134.58)"/><path class="f4cc3f77-84b5-4137-9b19-f665c8c4de2b" d="M321.35,147.21c-10.25-.85-20.26.9-30.91,5.38-103.32,43.5-135.87,313.54-140.09,353.09C160.65,463.13,225.56,207.42,321.35,147.21Z" transform="translate(-46.57 -134.58)"/><path class="f4cc3f77-84b5-4137-9b19-f665c8c4de2b" d="M472.49,195.37q-7.26,4.9-14.71,10.3c90.36,142.33,38.8,404.71,20.88,486.94C518.59,573.7,576.21,336,472.49,195.37Z" transform="translate(-46.57 -134.58)"/><path class="e26499be-f885-46a5-86a9-edac0fbd7337" d="M503.78,176.25q-1.66-1.75-3.39-3.46-9.7,5.28-19.85,11.72c1,1.2,2,2.41,3,3.63Q493.93,181.57,503.78,176.25Z" transform="translate(-46.57 -134.58)"/><path class="e26499be-f885-46a5-86a9-edac0fbd7337" d="M646.05,242.75c-9-40.88-31.38-72.63-63.33-86.28-11.33-4.84-25-4.85-40.32-1q2.88,1.72,5.67,3.62c12.35-2.33,23.21-1.66,32.17,2.69,30,14.57,44.66,47.81,53.06,87.29,26.39,124.12-57,338.1-150.89,444.35q-2.27,3.41-4.57,6.78a3.5,3.5,0,0,0,1.75-.94C575.5,593.17,675.38,376.45,646.05,242.75Z" transform="translate(-46.57 -134.58)"/><path class="e26499be-f885-46a5-86a9-edac0fbd7337" d="M155.08,503.39c-2.94,4.31-4.61,6.8-4.81,7.1a5,5,0,0,0-.24.58c.33,0,.43-.15,1.07-.84,15.21-18.13,152.77-180.65,273-278.56q-1.08-2.11-2.17-4.19C307.94,320.56,181.68,471.24,155.08,503.39Z" transform="translate(-46.57 -134.58)"/><path class="e26499be-f885-46a5-86a9-edac0fbd7337" d="M538.13,161.52c-1.64-1.14-3.32-2.25-5.07-3.32A187.23,187.23,0,0,0,509.71,168c1.23,1.11,2.45,2.24,3.64,3.38A165.78,165.78,0,0,1,538.13,161.52Z" transform="translate(-46.57 -134.58)"/><path class="e26499be-f885-46a5-86a9-edac0fbd7337" d="M431.61,219.68c.76,1.36,1.5,2.75,2.24,4.14q6.81-5.38,13.52-10.45c-.8-1.35-1.61-2.68-2.43-4Q438.31,214.36,431.61,219.68Z" transform="translate(-46.57 -134.58)"/><path class="e26499be-f885-46a5-86a9-edac0fbd7337" d="M455.23,201.74q1.29,1.95,2.55,3.93,7.44-5.38,14.71-10.3-1.38-1.87-2.81-3.74Q462.53,196.46,455.23,201.74Z" transform="translate(-46.57 -134.58)"/><path class="fb4dbd3f-3a4d-42ef-8998-1ee2bedfb374" d="M601.41,237.61c-10.34-36.27-29.21-62.13-53.34-78.52q-2.79-1.89-5.67-3.62-3.18-1.91-6.46-3.62c-14.65-7.59-31.67-7.68-50.24-2.06l.94.57c1.31.84,2.61,1.7,3.89,2.56,15-3.71,28.59-2.86,40,3.78.85.49,1.68,1,2.5,1.5,1.75,1.07,3.43,2.18,5.07,3.32,26.61,18.52,39.3,45.77,50.56,83.12C620,348.77,580.16,537.81,485,685.91q-3.37,6.52-6.73,12.7c-.19.54-.37,1.07-.55,1.6h.16q2.31-3.37,4.57-6.78C582.18,543.71,635.42,356.89,601.41,237.61Z" transform="translate(-46.57 -134.58)"/><path class="fb4dbd3f-3a4d-42ef-8998-1ee2bedfb374" d="M155.7,500c-3.37,6.42-5.26,10.13-5.43,10.47.2-.3,1.87-2.79,4.81-7.1,25.45-37.27,147-211.61,251.84-300.4-.87-1.22-1.75-2.43-2.64-3.61C299.62,287.43,184.16,457.27,155.7,500Z" transform="translate(-46.57 -134.58)"/><path class="fb4dbd3f-3a4d-42ef-8998-1ee2bedfb374" d="M413.24,192c.92,1.15,1.82,2.31,2.72,3.49,4.16-3.35,8.3-6.57,12.39-9.61q-1.38-1.69-2.78-3.36Q419.44,187.06,413.24,192Z" transform="translate(-46.57 -134.58)"/><path class="fb4dbd3f-3a4d-42ef-8998-1ee2bedfb374" d="M478.85,154.84c-.85-.59-1.77-1.16-2.73-1.71a169.07,169.07,0,0,0-18.07,8.48c1.12,1,2.23,2,3.33,3a145.91,145.91,0,0,1,19.09-8.6C479.93,155.61,479.4,155.22,478.85,154.84Z" transform="translate(-46.57 -134.58)"/><path class="fb4dbd3f-3a4d-42ef-8998-1ee2bedfb374" d="M435,175.82c1,1.07,1.95,2.14,2.91,3.23,4.52-3.12,9-6,13.38-8.69-1-1-2-2.07-3.08-3.1Q441.66,171.22,435,175.82Z" transform="translate(-46.57 -134.58)"/><path class="f3176958-24a0-437a-aa0f-6fb1e47f1d95" d="M399.76,157.23q-6.51,4.19-13.12,9.27c1.34,1,2.67,1.94,4,3q6.56-5,13-9l-.58-.5C401.93,159,400.84,158.1,399.76,157.23Z" transform="translate(-46.57 -134.58)"/><path class="f3176958-24a0-437a-aa0f-6fb1e47f1d95" d="M513.35,171.35c-1.19-1.14-2.41-2.27-3.64-3.38a174.86,174.86,0,0,0-19.18-15.05c-1.28-.86-2.58-1.72-3.89-2.56l-.94-.57c-12.83-7.67-37.33-11.66-53.06-7.69l-1.45.39a67.55,67.55,0,0,1,6.46,3.4c12.82-2,28.24,1.3,38.47,7.24,1,.55,1.88,1.12,2.73,1.71.55.38,1.08.77,1.62,1.16a160.63,160.63,0,0,1,19.92,16.79q1.73,1.71,3.39,3.46c106.48,112.12,49.84,369.37-21,509.16-1.54,4.56-3.05,9-4.5,13.2q3.36-6.17,6.73-12.7C558.05,544.48,632.47,285.5,513.35,171.35Z" transform="translate(-46.57 -134.58)"/><path class="f3176958-24a0-437a-aa0f-6fb1e47f1d95" d="M408.57,152q2,1.46,4,3l.14.11A105.56,105.56,0,0,1,426.39,149a56.19,56.19,0,0,0-5.49-3A117.36,117.36,0,0,0,408.57,152Z" transform="translate(-46.57 -134.58)"/><path class="f3176958-24a0-437a-aa0f-6fb1e47f1d95" d="M152.66,503.34c-1.73,4.35-2.69,6.86-2.79,7.14h0a2.52,2.52,0,0,0,0,.55.35.35,0,0,0,.11,0h0a5,5,0,0,1,.24-.58c.17-.34,2.06-4.05,5.43-10.47,25.16-47.88,132.81-246.48,226.73-324.08q-1.87-1.58-3.78-3C281.33,254.18,174,461.1,152.66,503.34Z" transform="translate(-46.57 -134.58)"/><path class="bb4d6d69-bcd6-48c9-bf24-b4827e80baeb" d="M360.91,151.89c1.69.76,3.39,1.55,5.1,2.4a98.71,98.71,0,0,1,16.89-8.61,61.62,61.62,0,0,0-5.8-2.72A110.94,110.94,0,0,0,360.91,151.89Z" transform="translate(-46.57 -134.58)"/><path class="bb4d6d69-bcd6-48c9-bf24-b4827e80baeb" d="M483.55,188.14c-1-1.22-2-2.43-3-3.63a224.12,224.12,0,0,0-19.16-19.91c-1.1-1-2.21-2-3.33-3q-6.94-6.13-14.58-11.84-2.84-2.1-5.82-3.88a67.55,67.55,0,0,0-6.46-3.4,62.4,62.4,0,0,0-41.69-3.89c-1.05.27-2.1.57-3.15.89,2.3.9,4.6,1.93,6.9,3.07A43.09,43.09,0,0,1,420.9,146a56.19,56.19,0,0,1,5.49,3,75.57,75.57,0,0,1,10.17,7.49q6,5.25,11.64,10.8c1,1,2.06,2.06,3.08,3.1a240.56,240.56,0,0,1,18.4,21.27q1.43,1.86,2.81,3.74C576.21,336,518.59,573.7,478.66,692.61c-.58,2.68-1.13,5.18-1.64,7.46a.89.89,0,0,0,.34.13,1.69,1.69,0,0,0,.32,0c.18-.53.36-1.06.55-1.6,1.45-4.23,3-8.64,4.5-13.2C524.49,561.68,593.07,322.91,483.55,188.14Z" transform="translate(-46.57 -134.58)"/><path class="bb4d6d69-bcd6-48c9-bf24-b4827e80baeb" d="M151.52,504c-1,4-1.59,6.22-1.65,6.5h0c.1-.28,1.06-2.79,2.79-7.14C170,459.56,265.32,227.46,358,159.73q-2.37-1.3-4.68-2.47C259,228.41,167.94,460.73,151.52,504Z" transform="translate(-46.57 -134.58)"/><path class="bccb7439-cdbc-47a0-a36d-c0fadfb9f0d0" d="M457.78,205.67q-1.26-2-2.55-3.93a212.71,212.71,0,0,0-17.33-22.69c-1-1.09-1.93-2.16-2.91-3.23a190.07,190.07,0,0,0-22.26-20.71l-.14-.11q-2-1.59-4-3a107.74,107.74,0,0,0-15.32-9.4c-2.3-1.14-4.6-2.17-6.9-3.07-14.33-5.61-28.69-6.48-43.21-2.29a80.7,80.7,0,0,0-13.89,5.53q4.15.5,8.4,1.41a71.8,71.8,0,0,1,7.08-2.48c11.9-3.44,22.1-2.88,32.37,1.3a61.62,61.62,0,0,1,5.8,2.72,107.34,107.34,0,0,1,16.86,11.55c1.08.87,2.17,1.76,3.27,2.7l.58.5a192.68,192.68,0,0,1,22,22.11q1.4,1.67,2.78,3.36a224.15,224.15,0,0,1,16.59,23.46c.82,1.33,1.63,2.66,2.43,4C529.62,352.24,495.5,599.64,478.88,686c-.69,5.37-1.37,10-2,13.92a1.14,1.14,0,0,0,.17.15c.51-2.28,1.06-4.78,1.64-7.46C496.58,610.38,548.14,348,457.78,205.67Z" transform="translate(-46.57 -134.58)"/><path class="bccb7439-cdbc-47a0-a36d-c0fadfb9f0d0" d="M150.35,505.68c-.3,2.89-.46,4.55-.48,4.8.06-.28.62-2.54,1.65-6.5C163.07,459.43,234,200.42,328.92,148.3a64.5,64.5,0,0,0-7.57-1.09C225.56,207.42,160.65,463.13,150.35,505.68Z" transform="translate(-46.57 -134.58)"/><path class="a6cf3f5b-1fef-43a2-8289-37c16a02b15c" d="M476.85,699.92c.66-3.89,1.34-8.55,2-13.92,10.68-83.13,22.76-334-45-462.18-.74-1.39-1.48-2.78-2.24-4.14A200,200,0,0,0,416,195.51c-.9-1.18-1.8-2.34-2.72-3.49a138.23,138.23,0,0,0-22.62-22.56c-1.31-1-2.64-2-4-3-1.76-1.25-3.54-2.46-5.35-3.6A171.42,171.42,0,0,0,366,154.29c-1.71-.85-3.41-1.64-5.1-2.4a115.43,115.43,0,0,0-23.26-7.75q-4.25-.91-8.4-1.41a79.7,79.7,0,0,0-41,5.63c-111.75,47-137.2,339-139.08,361.21,0,.74.16,1.37.74,1.47a2.52,2.52,0,0,1,0-.55h0c0-.25.18-1.91.48-4.8,4.22-39.55,36.77-309.59,140.09-353.09,10.65-4.48,20.66-6.23,30.91-5.38a64.5,64.5,0,0,1,7.57,1.09,96.52,96.52,0,0,1,24.4,9q2.31,1.17,4.68,2.47c4.2,2.31,8.56,4.92,13.12,7.84,2.57,1.65,5.07,3.44,7.53,5.33q1.91,1.47,3.78,3a140.49,140.49,0,0,1,21.85,23.44c.89,1.18,1.77,2.39,2.64,3.61a218.5,218.5,0,0,1,15,24.49q1.09,2.07,2.17,4.19c68.22,134.69,62,400.61,52.21,465.83A3.14,3.14,0,0,0,476.85,699.92Z" transform="translate(-46.57 -134.58)"/></svg>