<svg xmlns="http://www.w3.org/2000/svg" viewBox="0 0 641.87 114.94"><defs><style>.b927dae1-23d8-449b-b349-157e7c4ab181{fill:#00e2d1;}.af44f9a7-5865-414d-9d69-b3766510c6ac{fill:#fff;}</style></defs><g id="ab4fe41a-41c3-4440-b888-633675be10cf" data-name="Layer 2"><g id="be3a8138-6637-4f98-ba56-f2f5a1d0aff2" data-name="Layer 6"><polygon class="b927dae1-23d8-449b-b349-157e7c4ab181" points="576.82 57.35 573.17 65.01 618.07 65.01 614.42 57.35 576.82 57.35"/><polygon class="b927dae1-23d8-449b-b349-157e7c4ab181" points="275.94 57.33 272.29 64.99 317.19 64.99 313.54 57.33 275.94 57.33"/><polygon class="b927dae1-23d8-449b-b349-157e7c4ab181" points="184.44 88.14 142.4 0.01 133.92 0.01 180.2 97.03 184.44 88.14"/><rect class="b927dae1-23d8-449b-b349-157e7c4ab181" x="491.5" y="0.01" width="45.15" height="7.66"/><polygon class="af44f9a7-5865-414d-9d69-b3766510c6ac" points="7.66 107.23 7.66 0.01 0 0.01 0 107.23 0 114.85 0 114.89 68.22 114.89 68.22 107.23 7.66 107.23"/><rect class="af44f9a7-5865-414d-9d69-b3766510c6ac" x="97.42" y="0.01" width="7.66" height="114.88"/><polygon class="af44f9a7-5865-414d-9d69-b3766510c6ac" points="377.45 107.23 377.45 0.01 369.8 0.01 369.8 107.23 369.8 114.85 369.8 114.89 438.02 114.89 438.02 107.23 377.45 107.23"/><polygon class="af44f9a7-5865-414d-9d69-b3766510c6ac" points="235.02 0.01 199.06 75.4 184.48 106.02 188.71 114.88 192.95 105.99 243.5 0.01 235.02 0.01"/><polygon class="af44f9a7-5865-414d-9d69-b3766510c6ac" points="290.5 9.02 286.25 0.13 282.01 9.02 231.54 114.85 240.01 114.88 286.25 17.92 332.52 114.92 340.99 114.89 290.5 9.02"/><polygon class="af44f9a7-5865-414d-9d69-b3766510c6ac" points="423.28 0.01 423.28 7.66 476.19 7.66 476.19 114.85 483.84 114.85 483.84 7.66 483.84 0.01 423.28 0.01"/><polygon class="af44f9a7-5865-414d-9d69-b3766510c6ac" points="591.38 9.04 587.14 0.15 582.89 9.04 532.42 114.87 540.89 114.9 587.14 17.94 633.4 114.94 641.87 114.91 591.38 9.04"/><path class="af44f9a7-5865-414d-9d69-b3766510c6ac" d="M632.41,0V1.48h-2.63V7.64h-1.57V1.47h-2.62V0Z"/><path class="af44f9a7-5865-414d-9d69-b3766510c6ac" d="M640.53,0h1.34V7.66H640.3V3l-2.54,3.62L635.23,3V7.65h-1.57V0H635l2.76,4Z"/></g></g></svg>