<svg xmlns="http://www.w3.org/2000/svg" viewBox="0 0 295.6 271.35"><defs><style>.e98d50e8-fe73-4c4e-bafd-48f7cd9eeca8{fill:#fff;}</style></defs><g id="b0576e10-2818-4590-8797-21967e5a1fec" data-name="Layer 2"><g id="b14b9356-0067-41f2-b77b-ac4ced5fe247" data-name="Layer 8"><path class="e98d50e8-fe73-4c4e-bafd-48f7cd9eeca8" d="M116.85,166.86h-14V123.37H87.65v43.49h-14V73.3h14v37h15.17v-37h14Zm-12.32-1.71h10.61V75H104.53v37H85.94V75H75.34v90.13h10.6v-43.5h18.59Z"/><path class="e98d50e8-fe73-4c4e-bafd-48f7cd9eeca8" d="M161.89,166.86h-14V132.74a7.58,7.58,0,0,0-.43-2.6L130.07,73.3h15.41l.41,1.58c3.5,13.47,7.4,28.5,9.31,38.26,1.6-7.57,4.19-17.89,6.7-27.91,1-3.83,1.92-7.63,2.81-11.27l.17-.66h14.89l-17.64,57.8a13.31,13.31,0,0,0-.24,2.93Zm-12.32-1.71h10.61V134a15.13,15.13,0,0,1,.29-3.35l17-55.66H166.22l-2.66,10.62c-3,12-6.1,24.32-7.49,31.9l-.13.7h-1.59l-.11-.73c-1.42-9.11-6-26.69-10-42.2l-.07-.29H132.38l16.69,54.62a9.24,9.24,0,0,1,.5,3.1Z"/><path class="e98d50e8-fe73-4c4e-bafd-48f7cd9eeca8" d="M228,166.86H214.76V143.19H188.61l0-10.58L209.77,73.3H228V131h6.78l-1.14,12.21H228Zm-11.51-1.71h9.8V141.48h5.79l.82-8.79h-6.61V75H211l-20.66,58v8.44h26.15Zm0-32.46H200.36l.39-1.13c4.3-12.51,9.15-28.28,14.42-46.86l.17-.62H217l0,.87q-.07,4.22-.2,8.44c-.15,6.11-.31,12.43-.31,18.62ZM202.76,131h12V112c0-6.21.16-12.54.31-18.66l.06-2.3C210.66,106.59,206.5,120,202.76,131Z"/><path class="e98d50e8-fe73-4c4e-bafd-48f7cd9eeca8" d="M270.85,168c-13.94,0-21-8.54-21-25.4V96.85c0-15.66,7.92-24.64,21.74-24.64,13.48,0,21.21,8.93,21.21,24.5v45.67C292.8,159.6,285.62,168,270.85,168Zm.74-94c-12.92,0-20,8.14-20,22.93v45.71c0,15.94,6.31,23.69,19.29,23.69,13.81,0,20.24-7.58,20.24-23.87V96.71C291.09,82.22,284,73.92,271.59,73.92Zm-.27,82.87c-4.12,0-9-2.19-9-12.62V96c0-8.42,3-12.7,9-12.7s9,4.11,9,12.55v48C280.25,152.54,277.33,156.79,271.32,156.79Zm0-71.8c-4.89,0-7.27,3.6-7.27,11v48.19c0,7.24,2.46,10.91,7.31,10.91,3.36,0,7.22-1.28,7.22-11.28v-48C278.54,86.23,274.66,85,271.28,85Z"/><path class="e98d50e8-fe73-4c4e-bafd-48f7cd9eeca8" d="M36.76,144.24h1.88c6.11,0,13.84,1,13.84,11.19,0,9.19-6.06,11-13.72,11H12.92c-8,0-12.92-3.55-12.92-11.1,0-9.15,6.24-10.85,13.15-10.85h2.16v6.89H12.44c-3.67,0-6.2.72-6.2,4s2.35,4.07,6.27,4.07H39.29c4.09,0,7-.85,7-4.2s-2.76-4.06-7-4.06H36.76Z"/><path class="e98d50e8-fe73-4c4e-bafd-48f7cd9eeca8" d="M27.86,121.22v11.31H45.47v-13l6.29.89v18.92H.72v-18.8H7.07v12H21.56V121.22Z"/><path class="e98d50e8-fe73-4c4e-bafd-48f7cd9eeca8" d="M.72,115.56v-6.85H45.63V95.88l6.13.64v19Z"/><path class="e98d50e8-fe73-4c4e-bafd-48f7cd9eeca8" d="M.72,92.56V85.72H45.63V72.88l6.13.64v19Z"/><rect class="e98d50e8-fe73-4c4e-bafd-48f7cd9eeca8" x="1.14" y="187.28" width="293.41" height="52.63"/><path class="e98d50e8-fe73-4c4e-bafd-48f7cd9eeca8" d="M8.21,270.75h-8V260.12H1.72v9.16H8.21ZM.8,270.13H7.6v-.24H1.1v-9.16H.8Z"/><path class="e98d50e8-fe73-4c4e-bafd-48f7cd9eeca8" d="M14.54,270.94h0a5.57,5.57,0,0,1-4-1.49A5.29,5.29,0,0,1,9,265.51a5.4,5.4,0,0,1,1.51-4,5.48,5.48,0,0,1,4-1.5h0a5.19,5.19,0,0,1,5.53,5.49,5.3,5.3,0,0,1-1.51,3.94A5.51,5.51,0,0,1,14.54,270.94Zm0-10.29A4.9,4.9,0,0,0,10.94,262a4.81,4.81,0,0,0-1.33,3.54A4.73,4.73,0,0,0,10.93,269a5,5,0,0,0,3.6,1.3h0A4.94,4.94,0,0,0,18.13,269a4.73,4.73,0,0,0,1.32-3.5,4.6,4.6,0,0,0-4.92-4.88Zm0,9.41h0a4.5,4.5,0,0,1-3.29-1.24h0A4.51,4.51,0,0,1,10,265.51a4.58,4.58,0,0,1,1.24-3.34,4.42,4.42,0,0,1,3.27-1.26h0a4.43,4.43,0,0,1,3.28,1.27A4.6,4.6,0,0,1,19,265.53a4.44,4.44,0,0,1-1.23,3.3A4.4,4.4,0,0,1,14.54,270.06Zm0-8.54a3.74,3.74,0,0,0-2.83,1.08,4,4,0,0,0-1.06,2.91,3.88,3.88,0,0,0,1,2.88h0a3.83,3.83,0,0,0,2.85,1.06h0a3.84,3.84,0,0,0,2.84-1.05,3.87,3.87,0,0,0,1.05-2.87,4,4,0,0,0-1.06-2.92,3.79,3.79,0,0,0-2.84-1.09Z"/><path class="e98d50e8-fe73-4c4e-bafd-48f7cd9eeca8" d="M23.45,270.78H21.93V260.15H26.2a4,4,0,0,1,2.7.88,3,3,0,0,1,1,2.36,3.09,3.09,0,0,1-.68,2,3.35,3.35,0,0,1-1.45,1l2.49,4.36H28.56l-2.34-4.1H23.46Zm-.91-.62h.3V266h3.52l.2,0,2.36,4.13h.32L26.89,266l.38-.1a2.76,2.76,0,0,0,1.52-.91,2.47,2.47,0,0,0,.54-1.62,2.38,2.38,0,0,0-.83-1.9,3.46,3.46,0,0,0-2.3-.73H22.54Zm3.67-4.36H22.84V261H26.2a3.08,3.08,0,0,1,2,.65,2.27,2.27,0,0,1,0,3.48A3.05,3.05,0,0,1,26.21,265.8Zm-2.75-.62h2.75a2.51,2.51,0,0,0,1.64-.5,1.59,1.59,0,0,0,.59-1.27,1.56,1.56,0,0,0-.59-1.27,2.47,2.47,0,0,0-1.65-.51H23.46Z"/><path class="e98d50e8-fe73-4c4e-bafd-48f7cd9eeca8" d="M39.86,270.8h-8V260.17h8v1.47H33.37v3.06h5.47v1.47H33.37v3.15h6.49Zm-7.41-.62h6.8v-.25H32.76v-4.37h5.47v-.25H32.76V261h6.43v-.25H32.45Z"/><path class="e98d50e8-fe73-4c4e-bafd-48f7cd9eeca8" d="M52,270.82H50.43v-7.31l-3.63,5.8-3.71-5.84v7.34H41.56V260.18H42.8l4,6.29,3.93-6.27H52Zm-.92-.61h.31v-9.4h-.29l-4.27,6.81-4.33-6.83h-.29v9.41h.3v-8.83l4.31,6.79L51,261.39Z"/><path class="e98d50e8-fe73-4c4e-bafd-48f7cd9eeca8" d="M59.56,270.83H58V260.21h1.53Zm-.92-.61H59v-9.4h-.31Z"/><path class="e98d50e8-fe73-4c4e-bafd-48f7cd9eeca8" d="M63.46,270.84H61.93V260.22H66.2a4,4,0,0,1,2.7.89,3.21,3.21,0,0,1,0,4.74,4.09,4.09,0,0,1-2.69.88H63.46Zm-.92-.61h.3v-4.12h3.37a3.4,3.4,0,0,0,2.29-.73,2.35,2.35,0,0,0,.83-1.9,2.39,2.39,0,0,0-.83-1.91,3.42,3.42,0,0,0-2.3-.74H62.54Zm3.67-4.37H62.84v-4.77H66.2a3.13,3.13,0,0,1,2,.65,2.29,2.29,0,0,1,0,3.48A3.1,3.1,0,0,1,66.21,265.86Zm0-.61h0a2.46,2.46,0,0,0,1.64-.51,1.66,1.66,0,0,0,0-2.54,2.47,2.47,0,0,0-1.65-.51H63.46v3.55Z"/><path class="e98d50e8-fe73-4c4e-bafd-48f7cd9eeca8" d="M75,271h0a5,5,0,0,1-3.88-1.71l-.18-.2,1-1.15.24.26a5.67,5.67,0,0,0,.57.55,4.05,4.05,0,0,0,.61.41,2.7,2.7,0,0,0,.72.28,4.35,4.35,0,0,0,.92.09,2.75,2.75,0,0,0,1.72-.47,1.45,1.45,0,0,0,.58-1.23,1.43,1.43,0,0,0-.1-.53,1.11,1.11,0,0,0-.26-.39,2.1,2.1,0,0,0-.48-.31,5.89,5.89,0,0,0-.7-.26l-.93-.24a13.05,13.05,0,0,1-1.59-.43,2.62,2.62,0,0,1-1.93-2.33c0-.06,0-.13,0-.19A2.71,2.71,0,0,1,72.34,261a4.23,4.23,0,0,1,2.69-.81h0a5.09,5.09,0,0,1,3.61,1.41l.19.17L78,262.94l-.26-.23a5.82,5.82,0,0,0-1.25-.84,3.45,3.45,0,0,0-1.43-.26,2.86,2.86,0,0,0-1.69.44,1.29,1.29,0,0,0-.57,1.11,1.78,1.78,0,0,0,0,.35.66.66,0,0,0,.11.24,1.59,1.59,0,0,0,.2.24.71.71,0,0,0,.23.16l.34.17.38.13.43.11.48.11a12.09,12.09,0,0,1,2,.6,2.66,2.66,0,0,1,1.64,1.79,2.78,2.78,0,0,1,.1.78,2.9,2.9,0,0,1-1.06,2.36A4.27,4.27,0,0,1,75,271Zm0-.61h0a3.61,3.61,0,0,0,2.36-.7,2.27,2.27,0,0,0,.84-1.88,2.53,2.53,0,0,0-.08-.63,2.06,2.06,0,0,0-1.3-1.38,10.93,10.93,0,0,0-1.93-.56l-.48-.12L74,265a3.3,3.3,0,0,1-.47-.15l-.37-.18a1.52,1.52,0,0,1-.39-.29,2.48,2.48,0,0,1-.25-.3,1.24,1.24,0,0,1-.21-.45,2,2,0,0,1-.06-.5,1.88,1.88,0,0,1,.83-1.61,3.41,3.41,0,0,1,2-.55,4.6,4.6,0,0,1,1.7.32,5.3,5.3,0,0,1,1.12.71l.15-.21a4.45,4.45,0,0,0-3-1.07h0a3.65,3.65,0,0,0-2.31.68,2.12,2.12,0,0,0-.84,1.75c0,.05,0,.1,0,.14a2,2,0,0,0,1.53,1.81c.29.1.8.24,1.52.41.38.09.7.17,1,.25a5.2,5.2,0,0,1,.78.29,2.15,2.15,0,0,1,.65.42,1.76,1.76,0,0,1,.4.59,1.89,1.89,0,0,1,.15.77,2.08,2.08,0,0,1-.82,1.72,3.39,3.39,0,0,1-2.09.6h0a4.72,4.72,0,0,1-1-.12,3,3,0,0,1-.89-.34,4.07,4.07,0,0,1-.7-.47c-.12-.1-.26-.22-.4-.36l-.19.22A4.34,4.34,0,0,0,75,270.42Z"/><path class="e98d50e8-fe73-4c4e-bafd-48f7cd9eeca8" d="M85,271h0a4.28,4.28,0,0,1-3.35-1.34,5.24,5.24,0,0,1-1.19-3.61v-5.85H82v5.84a3.79,3.79,0,0,0,.79,2.56,2.76,2.76,0,0,0,2.22.88h0a2.75,2.75,0,0,0,2.22-.87A3.79,3.79,0,0,0,88,266.1v-5.84H89.5v5.84a5.22,5.22,0,0,1-1.19,3.61A4.29,4.29,0,0,1,85,271Zm0-.61h0a3.62,3.62,0,0,0,2.87-1.13,4.63,4.63,0,0,0,1-3.2v-5.23h-.31v5.23a4.36,4.36,0,0,1-.93,3A3.38,3.38,0,0,1,85,270.14h0a3.39,3.39,0,0,1-2.68-1.09,4.31,4.31,0,0,1-.94-3v-5.23H81v5.23a4.63,4.63,0,0,0,1,3.2A3.62,3.62,0,0,0,85,270.43Z"/><path class="e98d50e8-fe73-4c4e-bafd-48f7cd9eeca8" d="M102.07,270.9h-1.53v-7.31l-3.63,5.8-3.71-5.84v7.34H91.67V260.26h1.24l4,6.29,3.93-6.27h1.24Zm-.91-.61h.3v-9.4h-.29L96.9,267.7l-4.32-6.82h-.3v9.4h.31v-8.83l4.32,6.79,4.25-6.77Z"/><path class="e98d50e8-fe73-4c4e-bafd-48f7cd9eeca8" d="M109.67,270.92h-1.53V260.29h8v1.47h-6.43v3.06h5.48v1.47h-5.48Zm-.92-.62h.31v-4.62h5.47v-.25h-5.47v-4.28h6.43v-.25h-6.74Z"/><path class="e98d50e8-fe73-4c4e-bafd-48f7cd9eeca8" d="M122.72,271.11h0a5.5,5.5,0,0,1-4-1.48,5.31,5.31,0,0,1-1.51-3.94,5.41,5.41,0,0,1,1.51-4,5.47,5.47,0,0,1,4-1.49h0a5.45,5.45,0,0,1,4,1.51,5.4,5.4,0,0,1,1.51,4,5.31,5.31,0,0,1-1.5,3.94A5.51,5.51,0,0,1,122.72,271.11Zm0-.61h0a4.93,4.93,0,0,0,3.59-1.3,4.67,4.67,0,0,0,1.32-3.5,4.82,4.82,0,0,0-1.33-3.54,4.88,4.88,0,0,0-3.59-1.33h0a4.88,4.88,0,0,0-3.58,1.32,4.81,4.81,0,0,0-1.33,3.54,4.73,4.73,0,0,0,1.32,3.5A4.92,4.92,0,0,0,122.71,270.5Zm0-.27h0a4.47,4.47,0,0,1-3.28-1.23h0a4.48,4.48,0,0,1-1.23-3.31,4.6,4.6,0,0,1,1.23-3.35,4.41,4.41,0,0,1,3.27-1.25h0a4.41,4.41,0,0,1,3.28,1.26,4.61,4.61,0,0,1,1.23,3.35,4.22,4.22,0,0,1-4.5,4.53Zm-2.86-1.66a3.89,3.89,0,0,0,2.85,1.05,3.76,3.76,0,0,0,2.85-1,3.91,3.91,0,0,0,1-2.88,4,4,0,0,0-1-2.92,3.75,3.75,0,0,0-2.85-1.08h0a3.75,3.75,0,0,0-2.83,1.07,4,4,0,0,0-1.06,2.92,3.85,3.85,0,0,0,1,2.88Z"/><path class="e98d50e8-fe73-4c4e-bafd-48f7cd9eeca8" d="M131.64,271h-1.53V260.32h4.28a4,4,0,0,1,2.69.89,3,3,0,0,1,1,2.35,3.07,3.07,0,0,1-.67,2,3.3,3.3,0,0,1-1.46,1l2.49,4.36h-1.74l-2.33-4.1h-2.77Zm-.92-.61H131v-4.12h3.51l.2,0,2.36,4.13h.33l-2.36-4.13.39-.1a2.76,2.76,0,0,0,1.51-.91,2.4,2.4,0,0,0,.54-1.62,2.35,2.35,0,0,0-.83-1.89,3.39,3.39,0,0,0-2.29-.74h-3.67Zm3.67-4.37H131v-4.78h3.36a3.1,3.1,0,0,1,2,.65,2.29,2.29,0,0,1,0,3.48A3.1,3.1,0,0,1,134.39,266Zm-2.75-.62h2.75a2.45,2.45,0,0,0,1.65-.51,1.68,1.68,0,0,0,0-2.54,2.5,2.5,0,0,0-1.65-.51h-2.75Z"/><path class="e98d50e8-fe73-4c4e-bafd-48f7cd9eeca8" d="M151.74,271h-8V260.35h1.53v9.16h6.49Zm-7.41-.62h6.8v-.24h-6.49V261h-.31Z"/><path class="e98d50e8-fe73-4c4e-bafd-48f7cd9eeca8" d="M158.07,271.17h0a5.51,5.51,0,0,1-4-1.49,5.3,5.3,0,0,1-1.51-3.94,5.4,5.4,0,0,1,1.51-4,5.48,5.48,0,0,1,4-1.5h0a5.49,5.49,0,0,1,4,1.51,5.42,5.42,0,0,1,1.51,4,5.33,5.33,0,0,1-1.5,3.94A5.55,5.55,0,0,1,158.07,271.17Zm0-.61h0a4.93,4.93,0,0,0,3.59-1.3,4.73,4.73,0,0,0,1.32-3.5,4.81,4.81,0,0,0-1.33-3.54,4.88,4.88,0,0,0-3.59-1.34h0a4.87,4.87,0,0,0-3.58,1.33,4.8,4.8,0,0,0-1.33,3.53,4.73,4.73,0,0,0,1.32,3.51,5,5,0,0,0,3.6,1.31Zm0-.27h0a4.42,4.42,0,0,1-3.28-1.24h0a4.45,4.45,0,0,1-1.23-3.31,4.57,4.57,0,0,1,1.23-3.34,4.27,4.27,0,0,1,3.28-1.26,4.43,4.43,0,0,1,3.28,1.27,4.6,4.6,0,0,1,1.23,3.35,4.48,4.48,0,0,1-1.23,3.31A4.44,4.44,0,0,1,158.07,270.29Zm0-8.53a3.75,3.75,0,0,0-2.83,1.07,4,4,0,0,0-1.06,2.91,3.88,3.88,0,0,0,1.05,2.88h0a3.8,3.8,0,0,0,2.85,1.06h0a3.63,3.63,0,0,0,3.89-3.92,4,4,0,0,0-1.05-2.92,3.75,3.75,0,0,0-2.85-1.08Z"/><path class="e98d50e8-fe73-4c4e-bafd-48f7cd9eeca8" d="M167,271h-1.53V260.38h4.28a4,4,0,0,1,2.69.88,3,3,0,0,1,1,2.36,3.09,3.09,0,0,1-.67,2,3.38,3.38,0,0,1-1.46,1l2.49,4.36h-1.74l-2.34-4.1H167Zm-.92-.62h.31v-4.12h3.51l.2,0,2.36,4.13h.33l-2.36-4.12.39-.1a2.76,2.76,0,0,0,1.51-.91,2.4,2.4,0,0,0,.54-1.62,2.35,2.35,0,0,0-.83-1.89,3.41,3.41,0,0,0-2.29-.74h-3.67Zm3.67-4.36h-3.36v-4.78h3.36a3.12,3.12,0,0,1,2,.65,2.29,2.29,0,0,1,0,3.48A3.1,3.1,0,0,1,169.74,266Zm-2.75-.62h2.75a2.46,2.46,0,0,0,1.64-.51,1.67,1.67,0,0,0,0-2.54,2.5,2.5,0,0,0-1.65-.51H167Z"/><path class="e98d50e8-fe73-4c4e-bafd-48f7cd9eeca8" d="M183.39,271h-8V260.4h8v1.47H176.9v3.06h5.48v1.47H176.9v3.15h6.49Zm-7.41-.62h6.8v-.25h-6.49v-4.37h5.47v-.25h-5.47v-4.28h6.43V261H176Z"/><path class="e98d50e8-fe73-4c4e-bafd-48f7cd9eeca8" d="M195.49,271.05H194v-7.31l-3.63,5.8-3.71-5.84V271h-1.53V260.41h1.24l4,6.28,3.93-6.27h1.24Zm-.92-.61h.31V261h-.29l-4.27,6.81L186,261h-.29v9.4H186v-8.82l4.31,6.78,4.25-6.77Z"/><path class="e98d50e8-fe73-4c4e-bafd-48f7cd9eeca8" d="M203.09,271.07h-1.53V260.44h1.53Zm-.92-.62h.31v-9.4h-.31Z"/><path class="e98d50e8-fe73-4c4e-bafd-48f7cd9eeca8" d="M207,271.07h-1.53V260.45h4.28a4,4,0,0,1,2.69.89,3.22,3.22,0,0,1,0,4.74,4,4,0,0,1-2.69.88H207Zm-.92-.61h.31v-4.12h3.36a3.41,3.41,0,0,0,2.29-.74,2.35,2.35,0,0,0,.83-1.9,2.39,2.39,0,0,0-.83-1.91,3.46,3.46,0,0,0-2.29-.74h-3.67Zm3.67-4.37h-3.36v-4.78h3.36a3.1,3.1,0,0,1,2,.65,2.29,2.29,0,0,1,0,3.48A3.1,3.1,0,0,1,209.74,266.09Zm0-.61h0a2.5,2.5,0,0,0,1.65-.51,1.68,1.68,0,0,0,0-2.54,2.5,2.5,0,0,0-1.65-.51H207v3.56Z"/><path class="e98d50e8-fe73-4c4e-bafd-48f7cd9eeca8" d="M218.53,271.26h0a5,5,0,0,1-3.88-1.71l-.18-.2,1-1.15.23.26a5.67,5.67,0,0,0,.57.55,4.05,4.05,0,0,0,.61.41,2.46,2.46,0,0,0,.73.28,4.85,4.85,0,0,0,.9.1h0a2.71,2.71,0,0,0,1.72-.48,1.55,1.55,0,0,0,.48-1.76,1.21,1.21,0,0,0-.26-.39,1.65,1.65,0,0,0-.48-.3,4.59,4.59,0,0,0-.7-.27l-.93-.24a13.61,13.61,0,0,1-1.59-.43,2.64,2.64,0,0,1-1.93-2.33v-.19a2.68,2.68,0,0,1,1.06-2.22,4.17,4.17,0,0,1,2.69-.82h0a5.09,5.09,0,0,1,3.61,1.41l.19.17-.82,1.22-.26-.23a6,6,0,0,0-1.24-.84,3.86,3.86,0,0,0-1.44-.26,2.86,2.86,0,0,0-1.68.44,1.27,1.27,0,0,0-.57,1.11,1.83,1.83,0,0,0,0,.35.88.88,0,0,0,.11.24,2.54,2.54,0,0,0,.2.24.84.84,0,0,0,.23.16l.34.17.38.13.43.11.48.11a12.78,12.78,0,0,1,2,.6,2.68,2.68,0,0,1,1.64,1.79,2.78,2.78,0,0,1,.1.78,2.89,2.89,0,0,1-1.06,2.36A4.27,4.27,0,0,1,218.53,271.26Zm0-.61h0a3.64,3.64,0,0,0,2.37-.7,2.26,2.26,0,0,0,.83-1.88,2.53,2.53,0,0,0-.08-.63,2.06,2.06,0,0,0-1.3-1.38,11,11,0,0,0-1.92-.56l-.49-.12-.45-.11-.47-.16-.37-.18a1.52,1.52,0,0,1-.39-.29,2.48,2.48,0,0,1-.25-.3,1.17,1.17,0,0,1-.21-.45,2,2,0,0,1-.06-.5,1.88,1.88,0,0,1,.83-1.61,3.44,3.44,0,0,1,2-.55h0a4,4,0,0,1,1.68.32,6.31,6.31,0,0,1,1.13.71l.14-.21a4.45,4.45,0,0,0-3-1.07h0a3.65,3.65,0,0,0-2.31.68,2.11,2.11,0,0,0-.83,1.75v.14a2,2,0,0,0,1.54,1.81c.28.1.79.24,1.51.41.39.09.71.17,1,.25a5.2,5.2,0,0,1,.78.29,2.21,2.21,0,0,1,.65.42,1.76,1.76,0,0,1,.4.59,1.92,1.92,0,0,1,.15.77,2.08,2.08,0,0,1-.82,1.72,3.37,3.37,0,0,1-2.09.6,4.34,4.34,0,0,1-1.05-.11,3.65,3.65,0,0,1-.89-.34,4.65,4.65,0,0,1-.69-.48,3.25,3.25,0,0,1-.4-.36l-.19.22a4.3,4.3,0,0,0,3.24,1.31Z"/><path class="e98d50e8-fe73-4c4e-bafd-48f7cd9eeca8" d="M228.51,271.27h0a4.3,4.3,0,0,1-3.35-1.34,5.19,5.19,0,0,1-1.18-3.61v-5.84h1.52v5.84a3.77,3.77,0,0,0,.79,2.56,2.76,2.76,0,0,0,2.22.88h0a2.74,2.74,0,0,0,2.21-.87,3.77,3.77,0,0,0,.79-2.56v-5.84H233v5.84a5.22,5.22,0,0,1-1.19,3.61A4.29,4.29,0,0,1,228.51,271.27Zm0-.61h0a3.66,3.66,0,0,0,2.88-1.13,4.66,4.66,0,0,0,1-3.2V261.1h-.3v5.23a4.36,4.36,0,0,1-.94,3,3.35,3.35,0,0,1-2.67,1.08h0a3.35,3.35,0,0,1-2.68-1.09,4.36,4.36,0,0,1-.94-3v-5.23h-.3v5.23a4.63,4.63,0,0,0,1,3.2,3.62,3.62,0,0,0,2.89,1.14Z"/><path class="e98d50e8-fe73-4c4e-bafd-48f7cd9eeca8" d="M245.6,271.13h-1.52v-7.31l-3.64,5.8-3.71-5.83v7.33H235.2V260.49h1.24l4,6.28,3.93-6.27h1.25Zm-.91-.61h.3v-9.4h-.29l-4.27,6.81-4.32-6.82h-.29v9.4h.31v-8.82l4.32,6.78,4.25-6.77Z"/><path class="e98d50e8-fe73-4c4e-bafd-48f7cd9eeca8" d="M253.2,271.15h-1.53V260.52h1.53Zm-.92-.62h.31v-9.4h-.3Z"/><path class="e98d50e8-fe73-4c4e-bafd-48f7cd9eeca8" d="M266,271.17h-1.52v-7.3l-3.64,5.79-3.71-5.83v7.33h-1.53V260.53h1.24l4,6.29,3.93-6.28H266Zm-.91-.62h.3v-9.4h-.29L260.8,268l-4.32-6.82h-.3v9.4h.31v-8.82l4.32,6.79,4.25-6.78Z"/><path class="e98d50e8-fe73-4c4e-bafd-48f7cd9eeca8" d="M271.67,271.35h0a5,5,0,0,1-3.88-1.71l-.18-.2,1-1.15.23.25a5.93,5.93,0,0,0,.58.56,4.18,4.18,0,0,0,.6.41,3.16,3.16,0,0,0,.73.28,4.06,4.06,0,0,0,.91.09,2.77,2.77,0,0,0,1.72-.47,1.45,1.45,0,0,0,.58-1.23,1.27,1.27,0,0,0-.1-.54,1,1,0,0,0-.26-.38,1.9,1.9,0,0,0-.48-.31,5.3,5.3,0,0,0-.7-.26l-.93-.24c-.75-.18-1.28-.32-1.59-.43a2.65,2.65,0,0,1-1.93-2.34v-.19a2.72,2.72,0,0,1,1.06-2.22,4.26,4.26,0,0,1,2.7-.82h0a5.16,5.16,0,0,1,3.6,1.41l.19.18-.82,1.21-.26-.22a5.66,5.66,0,0,0-1.24-.84,3.09,3.09,0,0,0-1.44-.27,2.86,2.86,0,0,0-1.68.44,1.28,1.28,0,0,0-.57,1.12,1.83,1.83,0,0,0,0,.35.82.82,0,0,0,.11.23l.2.25a1.14,1.14,0,0,0,.23.16l.34.16a1.85,1.85,0,0,0,.38.13l.43.11.49.12a11,11,0,0,1,2,.6,2.66,2.66,0,0,1,1.65,1.78,3.29,3.29,0,0,1,.09.79,2.88,2.88,0,0,1-1.06,2.35A4.19,4.19,0,0,1,271.67,271.35Zm-3.26-1.92a4.32,4.32,0,0,0,3.24,1.31h0A3.69,3.69,0,0,0,274,270a2.27,2.27,0,0,0,.83-1.88,2.61,2.61,0,0,0-.08-.64,2,2,0,0,0-1.3-1.37,11.77,11.77,0,0,0-1.92-.57l-.49-.11-.45-.12a3.15,3.15,0,0,1-.47-.16l-.37-.18a1.5,1.5,0,0,1-.39-.28,2.48,2.48,0,0,1-.25-.3,1.28,1.28,0,0,1-.21-.46,1.89,1.89,0,0,1-.05-.49,1.87,1.87,0,0,1,.82-1.61,3.44,3.44,0,0,1,2-.56h0a3.89,3.89,0,0,1,1.69.33,5.56,5.56,0,0,1,1.12.71l.14-.21a4.45,4.45,0,0,0-3-1.07h0a3.66,3.66,0,0,0-2.32.68,2.08,2.08,0,0,0-.83,1.74v.15a2,2,0,0,0,1.54,1.8,11.65,11.65,0,0,0,1.51.41c.39.09.71.18,1,.25a4.85,4.85,0,0,1,.78.3,2.15,2.15,0,0,1,.65.42,1.67,1.67,0,0,1,.4.58,1.94,1.94,0,0,1,.15.78,2,2,0,0,1-.82,1.71,3.17,3.17,0,0,1-2.1.6,4.88,4.88,0,0,1-1-.11,3.29,3.29,0,0,1-.89-.34,5.53,5.53,0,0,1-.69-.47c-.13-.11-.26-.23-.4-.37Z"/><path class="e98d50e8-fe73-4c4e-bafd-48f7cd9eeca8" d="M285.32,271.2h-8V260.56h8V262h-6.43v3.07h5.47v1.47h-5.47v3.15h6.49Zm-7.41-.63,6.8,0v-.25h-6.5V266h5.48v-.25h-5.48v-4.29h6.42v-.25h-6.73Z"/><path class="e98d50e8-fe73-4c4e-bafd-48f7cd9eeca8" d="M291.69,271.21h-1.54v-9.16h-3.92v-1.47h9.36v1.47h-3.91Zm-.92-.61h.31v-9.16H295v-.25h-8.14v.25h3.92Z"/><polygon class="e98d50e8-fe73-4c4e-bafd-48f7cd9eeca8" points="264.78 26.29 263.11 29.8 279.8 29.8 278.13 26.29 264.78 26.29"/><polygon class="e98d50e8-fe73-4c4e-bafd-48f7cd9eeca8" points="126.88 26.28 125.21 29.79 141.9 29.79 140.23 26.28 126.88 26.28"/><polygon class="e98d50e8-fe73-4c4e-bafd-48f7cd9eeca8" points="84.95 40.4 65.68 0.01 61.79 0.01 83 44.48 84.95 40.4"/><rect class="e98d50e8-fe73-4c4e-bafd-48f7cd9eeca8" x="225.68" y="0.01" width="20.69" height="3.51"/><rect class="e98d50e8-fe73-4c4e-bafd-48f7cd9eeca8" x="45.07" y="0.01" width="3.51" height="52.65"/><polygon class="e98d50e8-fe73-4c4e-bafd-48f7cd9eeca8" points="173.41 49.15 173.41 0.01 169.9 0.01 169.9 49.15 169.9 52.65 169.9 52.66 201.17 52.66 201.17 49.15 173.41 49.15"/><polygon class="e98d50e8-fe73-4c4e-bafd-48f7cd9eeca8" points="108.13 0.01 91.65 34.56 84.97 48.6 86.91 52.66 88.85 48.58 112.02 0.01 108.13 0.01"/><polygon class="e98d50e8-fe73-4c4e-bafd-48f7cd9eeca8" points="133.56 4.14 131.61 0.07 129.67 4.14 106.54 52.65 110.42 52.66 131.61 8.22 152.82 52.68 156.7 52.66 133.56 4.14"/><polygon class="e98d50e8-fe73-4c4e-bafd-48f7cd9eeca8" points="271.45 4.15 269.51 0.08 267.57 4.15 244.43 52.65 248.31 52.67 269.51 8.23 290.72 52.69 294.6 52.67 271.45 4.15"/><polygon class="e98d50e8-fe73-4c4e-bafd-48f7cd9eeca8" points="194.41 0.01 194.41 3.52 218.66 3.52 218.66 52.65 222.17 52.65 222.17 3.52 222.17 0.01 194.41 0.01"/><polygon class="e98d50e8-fe73-4c4e-bafd-48f7cd9eeca8" points="3.93 49.15 3.93 0.01 0.42 0.01 0.42 49.15 0.42 52.65 0.42 52.66 31.68 52.66 31.68 49.15 3.93 49.15"/><path class="e98d50e8-fe73-4c4e-bafd-48f7cd9eeca8" d="M290.26,0V.68h-1.2V3.5h-.71V.67h-1.21V0Z"/><path class="e98d50e8-fe73-4c4e-bafd-48f7cd9eeca8" d="M294,0h.62v3.5h-.72V1.36L292.71,3l-1.16-1.66V3.51h-.72V0h.62l1.26,1.83Z"/></g></g></svg>