<svg xmlns="http://www.w3.org/2000/svg" xmlns:xlink="http://www.w3.org/1999/xlink" width="183.25" height="114.205" viewBox="0 0 183.25 114.205">
  <defs>
    <clipPath id="clip-path">
      <rect id="Rectangle_53" data-name="Rectangle 53" width="183.25" height="114.205" fill="#040d44"/>
    </clipPath>
  </defs>
  <g id="Group_67" data-name="Group 67" transform="translate(0 0)">
    <g id="Group_66" data-name="Group 66" transform="translate(0 0)" clip-path="url(#clip-path)">
      <path id="Path_67" data-name="Path 67" d="M31.454,19.843H26.806V44.584h3.856c7.907,0,8.561-5.382,8.561-11.38V29.791c0-4.919-.922-9.948-7.769-9.948M38.128,33.2c0,6.822-1.153,10.285-7.466,10.285H27.9V20.938h3.553c5.539,0,6.674,3.537,6.674,8.853Z" transform="translate(44.437 32.893)" fill="#040d44"/>
      <path id="Path_68" data-name="Path 68" d="M37.737,17.032h-14.3V84.969H33.492V56.645h3.7c11.285,0,16.542-5.887,16.542-18.53V34.124c0-11.5-5.233-17.092-16-17.092m14.9,21.084c0,12.058-4.763,17.435-15.447,17.435H32.4V83.874h-7.87V18.127H37.737c10.168,0,14.9,5.084,14.9,16Z" transform="translate(38.845 28.233)" fill="#040d44"/>
      <path id="Path_69" data-name="Path 69" d="M53.452,20.378c-3.838,13.53-7.367,25.007-10.49,34.107l-.25.726H54.254V40.234c0-4.5.117-9.1.229-13.546q.076-3.082.144-6.147l.008-.558H53.563Zm-.064,6.283c-.112,4.452-.229,9.055-.229,13.573V54.115H44.246c2.775-8.143,5.866-18.126,9.2-29.721l-.056,2.267" transform="translate(70.805 33.123)" fill="#040d44"/>
      <path id="Path_70" data-name="Path 70" d="M67.981,17.032H54.857L39.514,60.14l-.032,7.6H58.514V84.969h9.467V67.741h4.111l.813-8.736H67.981ZM71.7,60.1,71.1,66.646h-4.21V83.874h-7.28V66.646H40.58V60.419L55.63,18.127H66.886V60.1Z" transform="translate(65.45 28.233)" fill="#040d44"/>
      <path id="Path_71" data-name="Path 71" d="M76.362,40.555c-4.733,0-7.444,1.988-8.935,3.816v-7.2c0-8.837,1.27-11.673,5.23-11.673,3.362,0,4.733,1.975,4.733,6.812v1.72H87.2v-1.89c0-10.081-5.007-15.407-14.479-15.407C59.14,16.731,57.266,27,57.266,38.1V67.557c0,8.032,1.6,18.71,15.423,18.71,14.009,0,15.63-10.729,15.63-18.8V56.5c0-10.583-4.024-15.946-11.957-15.946M87.224,67.467c0,12.244-4.484,17.706-14.535,17.706-6.15,0-14.328-1.826-14.328-17.615V38.1c0-9.81,1.111-20.276,14.357-20.276,8.882,0,13.384,4.813,13.384,14.312v.795H78.485v-.625c0-3.681-.664-7.907-5.828-7.907-5.292,0-6.325,4.683-6.325,12.768V48.315l1.029-1.892c1.183-2.179,3.7-4.776,9-4.776,7.208,0,10.862,5,10.862,14.854Z" transform="translate(94.931 27.734)" fill="#040d44"/>
      <path id="Path_72" data-name="Path 72" d="M67.613,28.788c-4.473,0-6.937,3.312-6.937,9.323v11.17c0,7.792,3.551,9.427,6.527,9.427,4.316,0,6.328-3.019,6.328-9.5V37.205c0-5.664-1.935-8.417-5.919-8.417m4.824,20.425c0,7.447-2.8,8.4-5.233,8.4-3.6,0-5.432-2.8-5.432-8.332V38.111c0-3.753,1.015-8.228,5.842-8.228,3.293,0,4.824,2.326,4.824,7.322Z" transform="translate(100.584 47.721)" fill="#040d44"/>
      <path id="Path_73" data-name="Path 73" d="M31.978,35.887c-7.054,0-9.669,1.906-14.248,8.042-2.809,3.785-4.284,4.444-7.67,4.444-3.017,0-5.156-.641-5.156-3.088,0-2.474,1.988-3.048,5.169-3.048h1.983V36.61H9.921C5,36.61.019,38.008,0,45.178c-.021,7.213,5.4,8.866,10.883,8.866,6.251,0,8.478-2.376,12.05-6.915,3.532-4.5,5.159-5.525,9.873-5.525,3.543,0,5.86.885,5.86,3.63,0,2.684-1.911,3.809-5.411,3.809H30.71v5.672h2.477c5.571,0,10.339-1.919,10.339-9.321,0-7.575-5.571-9.507-11.548-9.507" transform="translate(0 59.489)" fill="#040d44"/>
      <path id="Path_74" data-name="Path 74" d="M32.578,27.18H.241v5.69H32.724c3.168,0,5.257.949,5.257,3.809,0,2.8-2.017,3.9-5.276,3.9H.241v5.672H32.633c7,0,10.493-3.1,10.493-9.461,0-6.626-3.933-9.608-10.549-9.608" transform="translate(0.4 45.056)" fill="#040d44"/>
      <path id="Path_75" data-name="Path 75" d="M42.533,24.059V17.665H.241v5.273h12.64c6.926,0,12.877-.037,18.282-.316V22.7c-2.751.55-24.172,5.948-30.923,7.885v6.634H42.533V31.908H29.481c-7.617,0-13.78.029-18.891.327v-.061c2.448-.582,25.676-6.394,31.943-8.114" transform="translate(0.4 29.282)" fill="#040d44"/>
      <path id="Path_76" data-name="Path 76" d="M80.6,16.348h0L74.024,2.557,72.812.016,71.6,2.557l-14.41,30.21,2.416.011,13.2-27.683,5.369,11.253H69.867l-1.042,2.185h10.4l6.8,14.256,2.419-.008L81.341,17.9Z" transform="translate(94.81 0.025)" fill="#040d44"/>
      <path id="Path_77" data-name="Path 77" d="M14.385,0,27.6,27.7l1.212-2.541L16.806,0Z" transform="translate(23.847 0)" fill="#040d44"/>
      <rect id="Rectangle_51" data-name="Rectangle 51" width="12.89" height="2.185" transform="translate(140.32)" fill="#040d44"/>
      <path id="Path_78" data-name="Path 78" d="M19.476,30.613H2.185V0H0V32.8H19.476Z" transform="translate(0 0)" fill="#040d44"/>
      <rect id="Rectangle_52" data-name="Rectangle 52" width="2.185" height="32.799" transform="translate(27.813)" fill="#040d44"/>
      <path id="Path_79" data-name="Path 79" d="M59.2,30.613H41.908V0H39.724V32.8H59.2Z" transform="translate(65.851 0)" fill="#040d44"/>
      <path id="Path_80" data-name="Path 80" d="M34.245,0,23.979,21.525l-4.162,8.741,1.207,2.53,1.212-2.538L36.667,0Z" transform="translate(32.85 0)" fill="#040d44"/>
      <path id="Path_81" data-name="Path 81" d="M40.494.014,39.282,2.552,24.872,32.765l2.419.008L40.494,5.09l5.369,11.255H37.549L36.5,18.531H46.9l6.8,14.256,2.419-.011L41.706,2.552Z" transform="translate(41.23 0.022)" fill="#040d44"/>
      <path id="Path_82" data-name="Path 82" d="M60.573,32.789H62.76V0H45.469V2.187h15.1Z" transform="translate(75.375 -0.001)" fill="#040d44"/>
      <path id="Path_83" data-name="Path 83" d="M67.95,2.182H68.4L68.4.42l.752,0V0L67.2,0V.42h.749Z" transform="translate(111.399 -0.002)" fill="#040d44"/>
      <path id="Path_84" data-name="Path 84" d="M68.517.844l.723,1.034L69.965.847V2.184l.446,0V0h-.38l-.795,1.138L68.45,0h-.38l0,2.179h.449Z" transform="translate(112.837 0.001)" fill="#040d44"/>
    </g>
  </g>
</svg>
