<svg xmlns="http://www.w3.org/2000/svg" viewBox="0 0 1108.8 581.17"><defs><style>.b0d0964e-9af7-41ce-b871-79f43acda141{fill:#00e2d1;}.b095885b-5875-458a-96ef-5c2207b09909{fill:#f36;}.bda7a12a-3e5f-4f01-a42f-03a5403b1bb0{fill:#fff;}</style></defs><g id="a0953624-9a15-48f9-9cd5-6fa386560cdc" data-name="Layer 2"><g id="a61c66e8-f494-4241-893b-136953859056" data-name="Illustration"><polygon class="b0d0964e-9af7-41ce-b871-79f43acda141" points="223.07 274.24 230.42 300.35 256.53 300.35 249.18 274.24 223.07 274.24"/><polygon class="b095885b-5875-458a-96ef-5c2207b09909" points="637 377.13 660.66 390.39 679.12 371.93 655.46 358.67 637 377.13"/><path class="bda7a12a-3e5f-4f01-a42f-03a5403b1bb0" d="M666.13,441c-12.16,7.38-24.85,14.74-38,21.93v29.53c20.62-10.85,40.23-22.17,58.5-33.43,2.48-1.13,5.46-2.44,8.89-3.87A72.34,72.34,0,0,0,741.18,485a73.37,73.37,0,0,0,14.33,1.42,72.39,72.39,0,0,0,40.36-12.32l10.51-7-22.94-36.38c43.07-6.15,93.94-4.55,141.84,18.94,39.55,25.25,86.37,51.6,136.62,72.75l46.9,19.74-31.69-39.82a242.75,242.75,0,0,1,0-302.33l31.69-39.81-46.9,19.74c-41.64,17.51-85.16,40.48-129.37,68.25A1134.51,1134.51,0,0,0,813.44,334.1,1134.54,1134.54,0,0,0,689.2,245,114.83,114.83,0,0,0,699,203.83,114.46,114.46,0,0,0,520.5,103.52a115.65,115.65,0,0,0-37.17,41.69C468.69,118.75,468.06,91.82,481.5,65,493.61,40.82,513,25.49,513.12,25.35L536.54,7.17,507.3,2.26C418.86-12.59,334.83,47.27,320,135.7c-.4,2.38-.74,4.8-1,7.22-33.38,5.34-68.66,15.16-105.47,29.39-46,17.76-94.35,42.36-143.84,73.13l-13.91,8.65L218.18,416.54H7.76l36.12,23.85c85.53,56.46,212.61,123.78,332.28,123.78,1,0,2,0,3,0h.33c1.28,0,2.59,0,3.92,0,16.44,0,42.89-1.33,62.11-4.25l0-.14c40.92,13.73,89.87,21.39,141.69,21.39h2l12.95,0V442.82L498.82,339.49l-18.39,18.38L574,451.43c-14.68-.61-29.17-1.86-43.28-3.77l-3.49,25.76c15.95,2.16,32.34,3.54,48.94,4.12V503A470.09,470.09,0,0,1,523.7,499l-3.5,25.76a494.61,494.61,0,0,0,56,4.3v26c-84.37-1.94-160.83-25.77-197.18-62a78.63,78.63,0,0,1-14.41-19c57.92-14.25,101-66.63,101-128.89,0-73.18-59.54-132.72-132.72-132.72v26a106.72,106.72,0,0,1,12,212.76H332.63c0,1.89.1,3.77.26,5.65a19.73,19.73,0,0,0,.17,2.06c2.06,18.5,11.48,36.53,27.57,52.55a170.21,170.21,0,0,0,35.42,26.47c-4.56.15-8.84.23-12.61.23-1.24,0-2.45,0-3.65,0h-.24l-.82,0c-.86,0-1.71,0-2.57,0-97,0-200.57-47.69-280.17-95.63H281L97.38,259c65-39,152.31-81.32,238.25-92.15a408.92,408.92,0,0,1,76.24-1.32c37,3.35,77,13.06,119.46,29,40.63,15.27,83.44,36.24,127.39,62.37,2.1,1.32,4.2,2.66,6.31,4l11.33,7.26.23-.38a1134.72,1134.72,0,0,1,116.65,83.41,1140.5,1140.5,0,0,1-119.43,85.1ZM535.1,125a88.46,88.46,0,0,1,138,77.54,88.93,88.93,0,0,1-6.27,28.69c-55.74-34.56-109.31-59.9-159.63-75.54A89.53,89.53,0,0,1,535.1,125Zm-59-99A149,149,0,0,0,458.7,52.46c-11.49,22.51-20,55.24-4.27,92.72-1.73-.34-3.36-.64-4.82-.89-1-.16-1.95-.31-2.92-.45l-.4-.06c-1.26-.24-2.54-.47-3.86-.69q-14.26-2.4-29.39-3.6t-29.6-1.32c-1.33,0-2.64,0-3.92,0h-.33l-3,0q-14.91,0-30.46,1.4C356.83,74.56,412.49,28,476.09,26.07ZM770,458.12a46.94,46.94,0,0,1-48.87-12.56c10.25-3.41,22-6.82,34.81-9.74Zm74.81-55.9a317.25,317.25,0,0,0-76.49,4.48L767,404.62c21.31-15.77,37.31-28.74,46.45-36.37,8.92,7.45,24.36,20,44.9,35.24Q851.62,402.69,844.79,402.22Zm98.53,27.92.2-.36c-1.33-.71-2.67-1.39-4-2.07a1138.46,1138.46,0,0,1-105.87-76.55,1130.2,1130.2,0,0,1,112.72-81,944.78,944.78,0,0,1,84.73-47.6A270.88,270.88,0,0,0,1006,287.5a63,63,0,0,0-57.94,62.35h0c0,.06,0,.11,0,.16s0,.1,0,.16h0a62.94,62.94,0,0,0,57.37,62.3,270.51,270.51,0,0,0,25.64,67.25A955.15,955.15,0,0,1,943.32,430.14Zm57.17-44.93a36.66,36.66,0,0,1,.32-70.49,265.78,265.78,0,0,0-.32,70.49Z"/><path class="bda7a12a-3e5f-4f01-a42f-03a5403b1bb0" d="M176.92,288.17a62.88,62.88,0,1,0,62.88-62.88A62.95,62.95,0,0,0,176.92,288.17Zm99.75,0a36.88,36.88,0,1,1-36.87-36.88A36.91,36.91,0,0,1,276.67,288.17Z"/><path class="bda7a12a-3e5f-4f01-a42f-03a5403b1bb0" d="M37.94,379.1A37.94,37.94,0,1,0,0,341.17,38,38,0,0,0,37.94,379.1Zm0-49.87A11.94,11.94,0,1,1,26,341.17,12,12,0,0,1,37.94,329.23Z"/><path class="bda7a12a-3e5f-4f01-a42f-03a5403b1bb0" d="M405.66,345.17h-26A46.91,46.91,0,0,1,332.8,392v26A73,73,0,0,0,405.66,345.17Z"/><polygon class="bda7a12a-3e5f-4f01-a42f-03a5403b1bb0" points="531.25 332.63 582.29 323.51 618.95 360.17 637.34 341.79 613.49 317.94 646.69 312 642.12 286.41 591.08 295.53 554.42 258.87 536.03 277.25 559.88 301.1 526.68 307.04 531.25 332.63"/></g></g></svg>