<svg xmlns="http://www.w3.org/2000/svg" viewBox="0 0 202.31 202.31"><defs><style>.ef71bd2d-5f48-4e9a-90e0-9be3688c8b52{fill:#fff;}.e50efd44-d612-4544-9159-01947709f852{fill:#00e2d1;}.ed31c31f-7e86-4e95-bc5b-30ef21a7d7eb{fill:#f36;}</style></defs><g id="e8f6b1fa-d903-4d35-bbd5-f4e9184af2b2" data-name="Layer 2"><g id="f51f8100-004b-4599-a2ce-4d40c34e4d84" data-name="Layer 1"><path class="ef71bd2d-5f48-4e9a-90e0-9be3688c8b52" d="M81,141.62v40.46H18.19l-1.7,1.13-9.62,6.41v-48H81m6.75-6.74H.12v54L0,202.31l20.23-13.48H87.7v-54Z"/><path class="ef71bd2d-5f48-4e9a-90e0-9be3688c8b52" d="M195.44,6.75v48l-9.62-6.42-1.71-1.13H121.39V6.75h74.05M202.19,0H114.64V54h67.44l20.23,13.49L202.19,54V0Z"/><polygon class="e50efd44-d612-4544-9159-01947709f852" points="175.34 32.25 168.59 30.35 168.59 23.6 175.34 25.5 175.34 32.25"/><path class="ef71bd2d-5f48-4e9a-90e0-9be3688c8b52" d="M33.72,121.39H27V97.91a67.18,67.18,0,0,1,74.27-66.79l-.71,6.71A60.43,60.43,0,0,0,33.72,97.91Z"/><path class="ef71bd2d-5f48-4e9a-90e0-9be3688c8b52" d="M108.07,157.83a66.59,66.59,0,0,1-7-.37l.66-6.22a60.67,60.67,0,0,0,67.08-60.32V67.44H175V90.92a66.91,66.91,0,0,1-66.94,66.91Z"/><polygon class="ed31c31f-7e86-4e95-bc5b-30ef21a7d7eb" points="26.98 166.18 33.73 164.28 33.73 157.53 26.98 159.43 26.98 166.18"/><polygon class="e50efd44-d612-4544-9159-01947709f852" points="118.02 78.51 111.27 76.61 111.27 69.86 118.02 71.76 118.02 78.51"/><polygon class="ed31c31f-7e86-4e95-bc5b-30ef21a7d7eb" points="84.29 118.97 91.04 117.07 91.04 110.32 84.29 112.22 84.29 118.97"/></g></g></svg>