<svg xmlns="http://www.w3.org/2000/svg" viewBox="0 0 202.31 202.31"><defs><style>.a2274367-6003-4735-b9ae-0419dc06f399{fill:#fff;}.f13d0eda-de59-4c28-9126-99ce352f8e19{fill:#00e2d1;}.a66ad33e-82c9-4343-aa1b-b8e6d744c32b{fill:#f36;}</style></defs><g id="bf5ad8de-2cb7-489f-84a0-98dd3afad886" data-name="Layer 2"><g id="e7dc47bd-58d3-419e-8b10-e3c6e6f4083e" data-name="Layer 1"><path class="a2274367-6003-4735-b9ae-0419dc06f399" d="M101.52,74.19a27,27,0,1,1-27,27,27,27,0,0,1,27-27m0-6.75a33.72,33.72,0,1,0,33.71,33.72,33.71,33.71,0,0,0-33.71-33.72Z"/><path class="a2274367-6003-4735-b9ae-0419dc06f399" d="M101.52,6.75A13.48,13.48,0,1,1,88,20.23,13.5,13.5,0,0,1,101.52,6.75m0-6.75a20.23,20.23,0,1,0,20.23,20.23A20.24,20.24,0,0,0,101.52,0Z"/><path class="a2274367-6003-4735-b9ae-0419dc06f399" d="M102,168.6A13.48,13.48,0,1,1,88.5,182.08,13.49,13.49,0,0,1,102,168.6m0-6.75a20.23,20.23,0,1,0,20.23,20.23A20.23,20.23,0,0,0,102,161.85Z"/><path class="a2274367-6003-4735-b9ae-0419dc06f399" d="M182.08,87.67a13.49,13.49,0,1,1-13.48,13.49,13.49,13.49,0,0,1,13.48-13.49m0-6.75a20.24,20.24,0,1,0,20.23,20.24,20.24,20.24,0,0,0-20.23-20.24Z"/><path class="a2274367-6003-4735-b9ae-0419dc06f399" d="M20.23,87.67A13.49,13.49,0,1,1,6.75,101.16,13.49,13.49,0,0,1,20.23,87.67m0-6.75a20.24,20.24,0,1,0,20.23,20.24A20.24,20.24,0,0,0,20.23,80.92Z"/><path class="a2274367-6003-4735-b9ae-0419dc06f399" d="M158.63,37.3a6.9,6.9,0,1,1-4.87,2,6.85,6.85,0,0,1,4.87-2m0-6.75a13.64,13.64,0,1,0,9.65,4,13.59,13.59,0,0,0-9.65-4Z"/><path class="a2274367-6003-4735-b9ae-0419dc06f399" d="M43.93,37.19a6.74,6.74,0,1,1-4.77,2,6.73,6.73,0,0,1,4.77-2m0-6.75a13.5,13.5,0,1,0,9.55,3.95,13.42,13.42,0,0,0-9.55-3.95Z"/><path class="a2274367-6003-4735-b9ae-0419dc06f399" d="M158.38,151.58a6.79,6.79,0,1,1-4.81,2,6.8,6.8,0,0,1,4.81-2m0-6.75a13.55,13.55,0,1,0,9.58,4,13.49,13.49,0,0,0-9.58-4Z"/><polygon class="f13d0eda-de59-4c28-9126-99ce352f8e19" points="104.89 58.27 98.14 56.38 98.14 49.63 104.89 51.52 104.89 58.27"/><polygon class="f13d0eda-de59-4c28-9126-99ce352f8e19" points="104.79 152.69 98.04 150.79 98.04 144.04 104.79 145.94 104.79 152.69"/><polygon class="f13d0eda-de59-4c28-9126-99ce352f8e19" points="144.35 104.58 146.25 97.83 153 97.83 151.1 104.58 144.35 104.58"/><polygon class="f13d0eda-de59-4c28-9126-99ce352f8e19" points="49.94 104.48 51.84 97.73 58.59 97.73 56.69 104.48 49.94 104.48"/><polygon class="a66ad33e-82c9-4343-aa1b-b8e6d744c32b" points="130.56 71.19 132.46 64.44 139.21 64.44 137.31 71.19 130.56 71.19"/><polygon class="a66ad33e-82c9-4343-aa1b-b8e6d744c32b" points="63.8 71.12 65.7 64.37 72.45 64.37 70.55 71.12 63.8 71.12"/><polygon class="a66ad33e-82c9-4343-aa1b-b8e6d744c32b" points="63.73 137.88 65.63 131.13 72.38 131.13 70.48 137.88 63.73 137.88"/><polygon class="a66ad33e-82c9-4343-aa1b-b8e6d744c32b" points="130.49 137.94 132.39 131.19 139.14 131.19 137.24 137.94 130.49 137.94"/><path class="a2274367-6003-4735-b9ae-0419dc06f399" d="M44.47,152a7,7,0,1,1-5,2.05,7,7,0,0,1,5-2.05m0-6.75a13.76,13.76,0,1,0,9.74,4,13.71,13.71,0,0,0-9.74-4Z"/></g></g></svg>