<svg id="a0d2a458-cddb-4467-8575-1fd4bfb3c889" data-name="Layer 1" xmlns="http://www.w3.org/2000/svg" xmlns:xlink="http://www.w3.org/1999/xlink" viewBox="0 0 50 50"><defs><style>.a9e842da-0efe-40d9-b10f-af1a42df0515{fill:none;}.aa8200ee-45dd-4a6b-8ffc-11bfc8e66d1b{fill:#f36;}.a20f0788-9c0c-4e87-a1f1-36a752da2740{clip-path:url(#fcb49d2d-5265-4e60-a611-30b44d07a3a4);}.be4f3098-22d6-42c2-9dad-bd68890f2d64{fill:#fff;}</style><clipPath id="fcb49d2d-5265-4e60-a611-30b44d07a3a4"><rect class="a9e842da-0efe-40d9-b10f-af1a42df0515" x="2.5" y="2.5" width="45" height="45"/></clipPath></defs><g id="bb308b6e-efbd-43b1-a2a3-83e5375cdc49" data-name="Group 427"><rect id="bb342e1d-f4fc-4825-826d-3045c8e42a05" data-name="Rectangle 791" class="aa8200ee-45dd-4a6b-8ffc-11bfc8e66d1b" x="2.5" y="2.5" width="45" height="45"/><g class="a20f0788-9c0c-4e87-a1f1-36a752da2740"><g id="ff4a1e0c-54c5-4e1b-ab54-1c0f66910bb3" data-name="Mask Group 9"><path id="a58543b7-6802-40e9-bcf3-ad10e261a6b0" data-name="iconmonstr-share-1" class="be4f3098-22d6-42c2-9dad-bd68890f2d64" d="M14.79,17.71A7.29,7.29,0,1,1,7.5,25a7.29,7.29,0,0,1,7.29-7.29ZM31,35.3a6.26,6.26,0,0,0-.18,1.36,5.9,5.9,0,1,0,1.56-3.93l-8-4.27A10.44,10.44,0,0,1,23,31l8,4.27Zm11.49-22a5.84,5.84,0,0,0-11.67,0A6.35,6.35,0,0,0,31,14.7L23,19a10.44,10.44,0,0,1,1.38,2.57l8-4.27A5.81,5.81,0,0,0,42.5,13.33Z"/></g></g></g></svg>