<svg id="a2b38cd3-d3d8-48ee-8b0b-f58683c8c455" data-name="Layer 1" xmlns="http://www.w3.org/2000/svg" xmlns:xlink="http://www.w3.org/1999/xlink" viewBox="0 0 50 50"><defs><style>.f359bb0e-6976-4ee9-bdbe-3a331e92bf40{fill:none;}.b03e20df-6a11-4203-acf1-f44d96451d89{fill:#fff;}.ebaa1a88-6d3e-4079-b7d0-7fbb8a864788{clip-path:url(#e5bbfeb3-323e-4561-bcd8-8f07cbe4a3fc);}.ef0e74d4-dd73-4565-89a6-4a941b642a1e{fill:#1cadea;}</style><clipPath id="e5bbfeb3-323e-4561-bcd8-8f07cbe4a3fc"><rect class="f359bb0e-6976-4ee9-bdbe-3a331e92bf40" x="2.5" y="2.5" width="45" height="45"/></clipPath></defs><g id="a217368d-bb22-48bb-b052-16fdca2b9569" data-name="Group 430"><rect id="e9050d77-05ec-4247-be2f-60eac59c7ca8" data-name="Rectangle 788" class="b03e20df-6a11-4203-acf1-f44d96451d89" x="2.5" y="2.5" width="45" height="45"/><g class="ebaa1a88-6d3e-4079-b7d0-7fbb8a864788"><g id="fafaabbb-75b7-4d97-a0d0-0f584d43203a" data-name="Mask Group 11"><path id="a6bc17f0-9061-4be7-bb95-b545b495dfe2" data-name="iconmonstr-twitter-2" class="ef0e74d4-dd73-4565-89a6-4a941b642a1e" d="M2.5,2.5v45h45V2.5ZM37.87,19.82c.39,8.66-6.07,18.31-17.5,18.31a17.43,17.43,0,0,1-9.43-2.77,12.35,12.35,0,0,0,9.11-2.55,6.15,6.15,0,0,1-5.75-4.27,6.22,6.22,0,0,0,2.78-.1,6.17,6.17,0,0,1-4.94-6.11,6.21,6.21,0,0,0,2.79.77A6.17,6.17,0,0,1,13,14.88a17.44,17.44,0,0,0,12.68,6.43A6.16,6.16,0,0,1,36.2,15.69a12.22,12.22,0,0,0,3.91-1.49,6.18,6.18,0,0,1-2.71,3.4,12.5,12.5,0,0,0,3.54-1,12.71,12.71,0,0,1-3.07,3.18Z"/></g></g></g></svg>