<svg xmlns="http://www.w3.org/2000/svg" viewBox="0 0 202.04 202.32"><defs><style>.e628aaca-625b-4dff-b78e-f3bf992d5fc6{fill:#fff;}.f45ebc5f-c2fb-489e-8fcc-f28dcd9487c6{fill:#00e2d1;}</style></defs><g id="a427fd25-5880-4691-b1aa-afb2b03eabc1" data-name="Layer 2"><g id="afcd1252-3f0e-4f38-8765-07ef74805388" data-name="Layer 1"><path class="e628aaca-625b-4dff-b78e-f3bf992d5fc6" d="M101.16,202.31A101.16,101.16,0,1,1,101.16,0V6.75a94.41,94.41,0,1,0,0,188.81Z"/><polygon class="f45ebc5f-c2fb-489e-8fcc-f28dcd9487c6" points="111.33 8.66 118.08 6.76 118.08 0.01 111.33 1.91 111.33 8.66"/><polygon class="f45ebc5f-c2fb-489e-8fcc-f28dcd9487c6" points="124.38 11.13 131.13 9.23 131.13 2.48 124.38 4.38 124.38 11.13"/><polygon class="f45ebc5f-c2fb-489e-8fcc-f28dcd9487c6" points="136.92 15.82 143.67 13.92 143.67 7.17 136.92 9.07 136.92 15.82"/><polygon class="f45ebc5f-c2fb-489e-8fcc-f28dcd9487c6" points="148.73 21.95 155.48 20.05 155.48 13.3 148.73 15.21 148.73 21.95"/><polygon class="f45ebc5f-c2fb-489e-8fcc-f28dcd9487c6" points="159.6 29.65 166.35 27.75 166.35 21 159.6 22.9 159.6 29.65"/><polygon class="f45ebc5f-c2fb-489e-8fcc-f28dcd9487c6" points="169.32 38.74 176.07 36.84 176.07 30.09 169.32 31.99 169.32 38.74"/><polygon class="f45ebc5f-c2fb-489e-8fcc-f28dcd9487c6" points="177.73 49.08 184.48 47.18 184.48 40.43 177.73 42.33 177.73 49.08"/><polygon class="f45ebc5f-c2fb-489e-8fcc-f28dcd9487c6" points="184.65 60.47 191.4 58.57 191.4 51.82 184.65 53.72 184.65 60.47"/><polygon class="f45ebc5f-c2fb-489e-8fcc-f28dcd9487c6" points="189.95 72.7 196.7 70.8 196.7 64.05 189.95 65.95 189.95 72.7"/><polygon class="f45ebc5f-c2fb-489e-8fcc-f28dcd9487c6" points="193.52 85.54 200.27 83.64 200.27 76.89 193.52 78.79 193.52 85.54"/><polygon class="f45ebc5f-c2fb-489e-8fcc-f28dcd9487c6" points="195.29 98.75 202.04 96.85 202.04 90.1 195.29 92 195.29 98.75"/><polygon class="f45ebc5f-c2fb-489e-8fcc-f28dcd9487c6" points="195.29 112.31 202.04 110.41 202.04 103.66 195.29 105.56 195.29 112.31"/><polygon class="f45ebc5f-c2fb-489e-8fcc-f28dcd9487c6" points="193.32 125.52 200.07 123.62 200.07 116.87 193.32 118.77 193.32 125.52"/><polygon class="f45ebc5f-c2fb-489e-8fcc-f28dcd9487c6" points="189.92 138.35 196.67 136.45 196.67 129.7 189.92 131.6 189.92 138.35"/><polygon class="f45ebc5f-c2fb-489e-8fcc-f28dcd9487c6" points="184.62 150.55 191.37 148.65 191.37 141.9 184.62 143.8 184.62 150.55"/><polygon class="f45ebc5f-c2fb-489e-8fcc-f28dcd9487c6" points="177.7 161.92 184.45 160.02 184.45 153.27 177.7 155.17 177.7 161.92"/><polygon class="f45ebc5f-c2fb-489e-8fcc-f28dcd9487c6" points="169.3 172.25 176.05 170.35 176.05 163.6 169.3 165.5 169.3 172.25"/><polygon class="f45ebc5f-c2fb-489e-8fcc-f28dcd9487c6" points="159.57 181.34 166.32 179.44 166.32 172.69 159.57 174.59 159.57 181.34"/><polygon class="f45ebc5f-c2fb-489e-8fcc-f28dcd9487c6" points="148.69 189.04 155.44 187.14 155.44 180.39 148.69 182.29 148.69 189.04"/><polygon class="f45ebc5f-c2fb-489e-8fcc-f28dcd9487c6" points="136.86 195.17 143.61 193.27 143.61 186.52 136.86 188.42 136.86 195.17"/><polygon class="f45ebc5f-c2fb-489e-8fcc-f28dcd9487c6" points="124.29 199.5 131.04 197.6 131.04 190.85 124.29 192.75 124.29 199.5"/><polygon class="f45ebc5f-c2fb-489e-8fcc-f28dcd9487c6" points="111.24 202.32 117.99 200.42 117.99 193.67 111.24 195.57 111.24 202.32"/><rect class="e628aaca-625b-4dff-b78e-f3bf992d5fc6" x="58.46" y="75.06" width="18.37" height="67.35"/><ellipse class="e628aaca-625b-4dff-b78e-f3bf992d5fc6" cx="67.65" cy="56.5" rx="10.71" ry="10.8"/><path class="e628aaca-625b-4dff-b78e-f3bf992d5fc6" d="M150.3,142.41H131.93V108.1c0-20.62-24.49-19.06-24.49,0v34.31H89.08V75.06h18.36V85.87C116,70,150.3,68.87,150.3,101Z"/></g></g></svg>