<svg xmlns="http://www.w3.org/2000/svg" viewBox="0 0 300.33 300"><defs><style>.e60762d5-5725-4239-98a8-731ecfcd790b{fill:none;}.bb2c6e9d-2ba0-41f3-b5dd-b666837bdedb{fill:#f36;}.b8a10a1c-1e2c-4312-95ed-ce50af0b8724{fill:#00e2d1;}.e255ec66-78f2-4ba5-b14c-133ff29aac0a{fill:#fff;}</style></defs><g id="e95fe3ef-62ec-470c-bca6-6361f0a1251d" data-name="Layer 2"><g id="a4ccdb2c-0cdf-4fe7-a72a-41db66e6e6e8" data-name="Layer 1"><rect class="e60762d5-5725-4239-98a8-731ecfcd790b" width="300" height="300"/><polygon class="bb2c6e9d-2ba0-41f3-b5dd-b666837bdedb" points="283.08 158.88 284.9 165.35 291.38 165.35 289.56 158.88 283.08 158.88"/><polygon class="bb2c6e9d-2ba0-41f3-b5dd-b666837bdedb" points="292.04 158.88 293.86 165.35 300.33 165.35 298.51 158.88 292.04 158.88"/><polygon class="b8a10a1c-1e2c-4312-95ed-ce50af0b8724" points="52.76 104.1 50.94 110.57 44.47 110.57 46.29 104.1 52.76 104.1"/><polygon class="b8a10a1c-1e2c-4312-95ed-ce50af0b8724" points="76.55 104.1 74.72 110.57 68.25 110.57 70.07 104.1 76.55 104.1"/><rect class="e255ec66-78f2-4ba5-b14c-133ff29aac0a" x="292.04" y="137.75" width="5.95" height="15.38"/><path class="e255ec66-78f2-4ba5-b14c-133ff29aac0a" d="M288.93,135.83,254.58,72.32H75.3a26,26,0,0,0,8.9-19.61H77.73a19.61,19.61,0,1,1-39.21,0H32.05A26,26,0,0,0,41,72.32H.33v3.24A22.38,22.38,0,0,0,7,92c8.29,8.28,22.08,10.14,28.08,10.55l5.41,48.36v.3h38V248h14.2l8.26-25.59-3.7-9.58-9.29,28.7h-1.4l-1.89-79,33.23,85.19H131v-63.1h53.91a21.68,21.68,0,0,0,10.95,7.81v5.27h6v-4.25h.67a21.64,21.64,0,0,0,10.75-2.85l2.53,4.15,5.08-3.09L218,187a21.83,21.83,0,0,0,6.18-13.31l3.25,3.54a51.89,51.89,0,0,1,8.93,29.2v1.14h0l-1.06,40.19H250l9.3-31.27,10,31.27h14.2l-14.07-65.22-.06-.25h-.07V113l13.87,25.65v14.47h5.95V135.92h-.29ZM275.38,241.27H274L262.56,205.5l2.89-8.91ZM88.61,78.79h16.53l.08.13h8.17c-1.19,6.62-6,11.47-14.35,14.43A52.23,52.23,0,0,1,86.68,96Zm86.88.13a19.61,19.61,0,0,1-38.71,0Zm-93.4-.13L79.83,99l-.41,3.62h0L76.59,128l-.16,0-1,10.5-.69,6.16H65.07l1-3.38H55.85l.95,3.38H46.28L38.9,78.79ZM34.31,96a54.08,54.08,0,0,1-12.62-2.62c-8.55-3-13.45-7.88-14.62-14.56H32.39L34,93.33Zm90.25,145.3h-1.51L96.31,174a55.58,55.58,0,0,1,40-17.07,57.1,57.1,0,0,1,44.05,21.42H124.53v6.32h0Zm86.06-56.42a15.5,15.5,0,0,1-21.32-5l-.89-1.44,0,0a63.67,63.67,0,0,0-52.1-27.92,62.09,62.09,0,0,0-42.64,17L82,137.92l4-35.39c5.91-.42,19.35-2.27,27.53-10.43a22,22,0,0,0,6.45-13.18h10.32a26.07,26.07,0,0,0,51.77,0h9.83v48.14a32.92,32.92,0,0,0,13.62,26.64l5,5,6.25,6.8A15.53,15.53,0,0,1,210.62,184.85Zm34.52,56.42H242l.89-33.72h0v-1.14a59,59,0,0,0-1.78-14.4l14.16,15.4Zm17.63-59h-.08l-5.33,17.93-24.84-27a59.31,59.31,0,0,0-6.2-7.56L211.18,150l-.07.06-.9-.93a26.4,26.4,0,0,1-11.89-22.05V78.79h52.41l12,22.26Z"/></g></g></svg>