<svg xmlns="http://www.w3.org/2000/svg" viewBox="0 0 1159.21 754.57"><defs><style>.acdf7ffe-8ccb-4781-a026-889e480180f5{fill:#f36;}.b342dbf3-70ba-4402-8a47-ade7c2a4ceba{fill:#00e2d1;}.eed5ed5f-fe80-462b-bc1b-e5f900853a32{fill:#fff;}</style></defs><g id="ad42dec5-54f5-4ac7-923f-a156579a76b0" data-name="Layer 2"><g id="e666de13-159b-4cfa-860f-4d1f8ad6c11b" data-name="New Illustration"><polygon class="acdf7ffe-8ccb-4781-a026-889e480180f5" points="1092.54 410.22 1099.58 435.24 1124.6 435.24 1117.56 410.22 1092.54 410.22"/><polygon class="acdf7ffe-8ccb-4781-a026-889e480180f5" points="1127.15 410.22 1134.19 435.24 1159.2 435.24 1152.16 410.22 1127.15 410.22"/><polygon class="b342dbf3-70ba-4402-8a47-ade7c2a4ceba" points="202.58 198.55 195.54 223.57 170.52 223.57 177.56 198.55 202.58 198.55"/><polygon class="b342dbf3-70ba-4402-8a47-ade7c2a4ceba" points="294.48 198.55 287.44 223.57 262.42 223.57 269.46 198.55 294.48 198.55"/><rect class="eed5ed5f-fe80-462b-bc1b-e5f900853a32" x="1127.15" y="328.6" width="23" height="59.43"/><path class="eed5ed5f-fe80-462b-bc1b-e5f900853a32" d="M1115.14,321.17,982.43,75.76H289.65A100.53,100.53,0,0,0,324.06,0h-25A75.85,75.85,0,0,1,223.3,75.76,75.84,75.84,0,0,1,147.54,0h-25A100.53,100.53,0,0,0,157,75.76H0v12.5c0,25.14,8.63,46.5,25.65,63.49,32,32,85.3,39.14,108.48,40.74L155,379.36v1.15H301.92V754.57h54.87l31.93-98.91-14.32-37L338.52,729.57h-5.44l-7.26-305.15,128.4,329.15H505V509.78H713.31A83.94,83.94,0,0,0,755.62,540v20.38h23V543.87c.86,0,1.72,0,2.59,0a83.77,83.77,0,0,0,41.53-11L832.51,549l19.65-12-11.08-18.18A84.41,84.41,0,0,0,865,467.38L877.52,481A200.55,200.55,0,0,1,912,593.87v4.43h.08L908,753.57h56.62l35.93-120.79,38.54,120.79h54.87l-54.38-252-.21-.94h-.29V233l53.6,99.11v55.94h23V321.49h-1.11Zm-52.38,407.4h-5.44l-44.09-138.2,11.17-34.44ZM341.1,100.76H405l.33.5h31.54c-4.57,25.57-23.16,44.3-55.44,55.78-17.75,6.31-35.78,9-47.74,10.09Zm335.71.5a75.76,75.76,0,0,1-149.58,0Zm-360.88-.5L307.17,179l-1.56,14h0l-11,98.07-.61.14-3.94,40.57-2.66,23.8H250.16l3.67-13.06H214.52l3.68,13.06H177.53L149,100.76ZM131.29,167.15C119.12,166,100.67,163.38,82.5,157c-33-11.56-52-30.45-56.46-56.26h97.82L130.15,157ZM480,728.57h-5.83l-103.32-260a214.85,214.85,0,0,1,154.72-66c65.38,0,129.09,31.35,170.2,82.79H479.88v24.42H480Zm332.56-218a59.93,59.93,0,0,1-82.4-19.41l-3.44-5.57.15-.11c-44.8-66.55-121.93-107.9-201.3-107.9a239.84,239.84,0,0,0-164.76,65.7l-45.3-114,15.31-136.76c22.82-1.61,74.79-8.75,106.38-40.29a85.42,85.42,0,0,0,24.94-50.93H502a100.76,100.76,0,0,0,200.07,0h38v186A127.09,127.09,0,0,0,792.65,390.2l19.22,19.47L836,435.93A59.94,59.94,0,0,1,812.56,510.56ZM946,728.57H933.64l3.45-130.27H937v-4.43a227.46,227.46,0,0,0-6.86-55.61l54.72,59.49Zm68.1-228h-.29l-20.6,69.27-96-104.37a228.61,228.61,0,0,0-23.94-29.2l-58.51-60.43-.26.24L811,372.5A102.09,102.09,0,0,1,765,287.27V100.76H967.52l46.53,86Z"/></g></g></svg>