<svg xmlns="http://www.w3.org/2000/svg" viewBox="0 0 952.16 856.99"><defs><style>.ea452e35-701a-4fdb-aad0-2979437fe1f8{fill:#f36;}.aa2239d4-d765-4470-a2e9-4e057788947e{fill:#00e2d1;}.b6776442-164f-450a-8ed2-ba7b5ba55fc3{fill:#fff;}</style></defs><g id="af462680-b99d-4722-b2c3-0cb09270c0d0" data-name="Layer 2"><g id="ebc54535-fb9c-4f98-8af6-b07d87c152ae" data-name="Illustration"><polygon class="ea452e35-701a-4fdb-aad0-2979437fe1f8" points="671.17 257.88 646.16 250.84 646.16 225.82 671.17 232.86 671.17 257.88"/><polygon class="ea452e35-701a-4fdb-aad0-2979437fe1f8" points="671.17 308.15 646.16 301.11 646.16 276.1 671.17 283.14 671.17 308.15"/><polygon class="aa2239d4-d765-4470-a2e9-4e057788947e" points="176.56 160.69 151.54 153.65 151.54 128.63 176.56 135.67 176.56 160.69"/><polygon class="ea452e35-701a-4fdb-aad0-2979437fe1f8" points="304.31 588.09 311.36 613.11 336.37 613.11 329.33 588.09 304.31 588.09"/><polygon class="aa2239d4-d765-4470-a2e9-4e057788947e" points="159.16 442.16 166.2 467.18 191.22 467.18 184.18 442.16 159.16 442.16"/><path class="b6776442-164f-450a-8ed2-ba7b5ba55fc3" d="M799.16,323.44a153,153,0,0,0-128,69.26V332.64l-25-7V463.47a128.26,128.26,0,0,1-37.59-245.78,135.2,135.2,0,0,1,15.83-5.51,127.66,127.66,0,0,1,15.85-3.32,213,213,0,0,1,30.66-2.4V182.81H658.53c-84.36,0-153,68.64-153,153A153,153,0,0,0,575.2,464.06H393.5a97.7,97.7,0,0,1-97.59-97.6v-190a106,106,0,0,0-38.09-81.38h72.59a82.68,82.68,0,0,0,82.68-82.68h0A12.37,12.37,0,0,0,400.72,0H260.09a82.7,82.7,0,0,0-81.84,70.94,106.4,106.4,0,0,0-85.91,63.47A108.47,108.47,0,0,0,0,241.54H80.36A82.69,82.69,0,0,0,12.5,322.88V433.5a12.38,12.38,0,0,0,12.38,12.38h0a82.45,82.45,0,0,0,58.78-24.55V474.6a292.68,292.68,0,0,0,23.58,115.49c10.19,23.9,33.37,56.08,54.18,81.26l16.2-16.2-.5-.51A271.53,271.53,0,0,1,130,580.38,268.08,268.08,0,0,1,108.41,474.6V176.44a81.47,81.47,0,0,1,81.37-81.38h0a81.48,81.48,0,0,1,81.38,81.38V291.38a103.34,103.34,0,0,0-10.85-.58A101.4,101.4,0,0,0,159,392.08v25.08h24.8V392.08h-.05a76.55,76.55,0,0,1,87.38-75.76v50.14A122.48,122.48,0,0,0,393.5,488.81H645.88A267.06,267.06,0,0,1,568,666c-19.58,19.69-36.22,33-60.11,45.59h0a154,154,0,0,0-66.36-59.13c54.84-22.3,93.6-76.15,93.6-138.89h-252l14,49.81h25l-7-25-.06-.05H506.74l.94-.21c-11.43,57.14-62,100.32-122.42,100.32v.11c-2.63-.14-5.27-.23-7.93-.23a153,153,0,0,0-130.25,72.82,269.66,269.66,0,0,1-49.25-35.57l-1.91-1.93-17.43,17.43,1.84,2,.85.84A293.39,293.39,0,0,0,265,747.42,288,288,0,0,0,377.3,770.06h1.89a291.87,291.87,0,0,0,113.63-23.6c1.34-.58,2.66-1.18,4-1.77a127.43,127.43,0,0,1,8.49,38.25,78.19,78.19,0,0,0-53.41,74h24.75A53.37,53.37,0,0,1,530,803.68V791.3h.38q0-5.37-.38-10.65v-1.72h-.13A152.08,152.08,0,0,0,519,733.64,293.17,293.17,0,0,0,670.63,488.81H952.16V476.44C952.16,392.07,883.52,323.44,799.16,323.44ZM84.69,161.66a105.93,105.93,0,0,0-1,14.78v40.1H28.84A83.68,83.68,0,0,1,84.69,161.66ZM82.81,363.19a58,58,0,0,1-45.56,56.6V322.88a58,58,0,0,1,45.56-56.61ZM260.09,24.75H387a58,58,0,0,1-56.6,45.56H203.49A58,58,0,0,1,260.09,24.75Zm9.18,697.55a128.27,128.27,0,0,1,108.06-59.25c2.66,0,5.3.09,7.93.25v.12l1.36,0a128.33,128.33,0,0,1,99,59.26A268.29,268.29,0,0,1,379,745.31,263.3,263.3,0,0,1,274.58,724.6M671.5,464.06A128.42,128.42,0,0,1,799.16,348.19c66.54,0,121.41,50.94,127.65,115.87Z"/></g></g></svg>