<svg id="eaa8cfaum1h71" xmlns="http://www.w3.org/2000/svg" xmlns:xlink="http://www.w3.org/1999/xlink" viewBox="0 0 30 30" shape-rendering="geometricPrecision" text-rendering="geometricPrecision"><style><![CDATA[#eaa8cfaum1h73_to {animation: eaa8cfaum1h73_to__to 1500ms linear infinite normal forwards}@keyframes eaa8cfaum1h73_to__to { 0% {transform: translate(15px,15px)} 100% {transform: translate(15px,23px)} }]]></style><g id="eaa8cfaum1h72"><g id="eaa8cfaum1h73_to" transform="translate(15,15)"><line id="eaa8cfaum1h73" x1="15" y1="10" x2="15" y2="11.824462" transform="translate(-15,-15)" fill="none" stroke="rgb(0,226,209)" stroke-width="5" stroke-linecap="round" stroke-miterlimit="10"/></g><path id="eaa8cfaum1h74" d="M12.780000,2.280000C9.145900,3.285497,6.627106,6.589369,6.620000,10.360000L6.620000,19.600000C6.620000,24.228146,10.371854,27.980000,15,27.980000C19.628146,27.980000,23.380000,24.228146,23.380000,19.600000L23.380000,10.370000C23.375431,6.324460,20.487869,2.856864,16.510000,2.120000C15.267434,1.942937,14.002839,1.997182,12.780000,2.280000ZM10.480000,5.840000C12.310191,4.014229,15.059076,3.468810,17.447699,4.457507C19.836321,5.446204,21.395577,7.774846,21.400000,10.360000L21.400000,19.600000C21.400000,23.134622,18.534622,26,15,26C11.465378,26,8.600000,23.134622,8.600000,19.600000L8.600000,10.370000C8.596932,8.669601,9.273834,7.038554,10.480000,5.840000Z" fill="rgb(255,255,255)" stroke="none" stroke-width="1"/></g></svg>