<svg xmlns="http://www.w3.org/2000/svg" viewBox="0 0 202.23 202.23"><defs><style>.a348a5d8-5020-42f8-bad6-2453dc5d4c5c{fill:#fff;}.aed5aa91-69fd-42ce-8de2-b46d8a1b31ef{fill:#00e2d1;}.f26a1516-bd60-4e3e-9a36-4b9060eaf24b{fill:#f36;}</style></defs><g id="afe4326b-25b6-480f-a43f-6ae563477316" data-name="Layer 2"><g id="e4da32f0-3e4d-40aa-b426-5f8d056f8516" data-name="Layer 6"><rect class="a348a5d8-5020-42f8-bad6-2453dc5d4c5c" y="97.74" width="202.23" height="6.75"/><polygon class="a348a5d8-5020-42f8-bad6-2453dc5d4c5c" points="6.75 40.45 0 40.45 0 0 101.11 0 101.11 6.75 6.75 6.75 6.75 40.45"/><rect class="a348a5d8-5020-42f8-bad6-2453dc5d4c5c" x="25.28" y="37.07" width="151.71" height="6.75"/><rect class="a348a5d8-5020-42f8-bad6-2453dc5d4c5c" x="25.17" y="158.41" width="151.9" height="6.75"/><path class="a348a5d8-5020-42f8-bad6-2453dc5d4c5c" d="M101.11,6.75c9.77,0,19.77,9.38,27.45,25.73,8.55,18.22,13.26,42.59,13.26,68.63s-4.71,50.42-13.26,68.63c-7.68,16.36-17.68,25.74-27.45,25.74s-19.77-9.38-27.44-25.74c-8.55-18.21-13.26-42.59-13.26-68.63S65.12,50.7,73.67,32.48C81.34,16.13,91.35,6.75,101.11,6.75m0-6.75C74.91,0,53.66,45.27,53.66,101.11s21.25,101.12,47.45,101.12S148.56,157,148.56,101.11,127.32,0,101.11,0Z"/><polygon class="a348a5d8-5020-42f8-bad6-2453dc5d4c5c" points="202.21 202.22 101.09 202.22 101.09 195.47 195.46 195.47 195.46 161.77 202.21 161.77 202.21 202.22"/><path class="a348a5d8-5020-42f8-bad6-2453dc5d4c5c" d="M108.13,195.22h8.3a22.49,22.49,0,0,0,3.12-1.55A95.07,95.07,0,0,1,108.13,195.22Z"/><path class="a348a5d8-5020-42f8-bad6-2453dc5d4c5c" d="M107.79,195.24c-2.21.16-4.43.24-6.68.24A94.31,94.31,0,0,1,32,37H23a101.11,101.11,0,0,0,78.14,165.28c13.09,0,7.72,0,19.2-4.54l-3.88-2.47C110.93,197.41,108.09,195.46,107.79,195.24Z"/><path class="a348a5d8-5020-42f8-bad6-2453dc5d4c5c" d="M101.11,0A100.82,100.82,0,0,0,64.43,6.87h28c5-2,7.83-.56,8.51-.12h.16a94.31,94.31,0,0,1,69.26,158.39h9A101.11,101.11,0,0,0,101.11,0Z"/><path class="a348a5d8-5020-42f8-bad6-2453dc5d4c5c" d="M96.37,6.87H92.44c-.28.11-.56.22-.84.35C93.18,7.07,94.77,7,96.37,6.87Z"/><polygon class="aed5aa91-69fd-42ce-8de2-b46d8a1b31ef" points="31.55 32.23 38.3 30.33 38.3 23.58 31.55 25.48 31.55 32.23"/><polygon class="aed5aa91-69fd-42ce-8de2-b46d8a1b31ef" points="42.51 24.19 49.26 22.29 49.26 15.54 42.51 17.44 42.51 24.19"/><polygon class="aed5aa91-69fd-42ce-8de2-b46d8a1b31ef" points="54.51 17.83 61.26 15.93 61.26 9.18 54.51 11.08 54.51 17.83"/><polygon class="f26a1516-bd60-4e3e-9a36-4b9060eaf24b" points="171.13 168.78 164.38 170.69 164.38 177.44 171.13 175.53 171.13 168.78"/><polygon class="f26a1516-bd60-4e3e-9a36-4b9060eaf24b" points="160.18 176.83 153.43 178.73 153.43 185.48 160.18 183.58 160.18 176.83"/><polygon class="f26a1516-bd60-4e3e-9a36-4b9060eaf24b" points="148.18 183.19 141.43 185.09 141.43 191.84 148.18 189.94 148.18 183.19"/></g></g></svg>