<svg xmlns="http://www.w3.org/2000/svg" viewBox="0 0 979.62 600.84"><defs><style>.ef49dd13-74b4-4f73-b441-de27b44cd21c{fill:#00e2d1;}.f793ff04-e51c-4378-9c05-c5d47b1c469c{fill:#f36;}.bd302959-a2f0-4aac-a68f-2ee7920a62ff{fill:#fff;}</style></defs><g id="a9d01f8b-56c8-4b28-bef3-5abcc61685b2" data-name="Layer 2"><g id="ebe5a85d-6de6-4105-805b-dc237afa3a95" data-name="Illustration"><polygon class="ef49dd13-74b4-4f73-b441-de27b44cd21c" points="139.35 245.72 146.39 270.74 171.41 270.74 164.37 245.72 139.35 245.72"/><polygon class="f793ff04-e51c-4378-9c05-c5d47b1c469c" points="419 122.47 426.35 148.57 452.45 148.57 445.11 122.47 419 122.47"/><polygon class="f793ff04-e51c-4378-9c05-c5d47b1c469c" points="471.36 122.47 478.71 148.57 504.82 148.57 497.47 122.47 471.36 122.47"/><path class="bd302959-a2f0-4aac-a68f-2ee7920a62ff" d="M666.3,122.52H523.47l7.35,26.06,135.48-.06A120.46,120.46,0,0,1,786.62,268.84h26C812.62,188.16,747,122.52,666.3,122.52Z"/><path class="bd302959-a2f0-4aac-a68f-2ee7920a62ff" d="M952.11,132.55l.08.08A93.88,93.88,0,0,0,952.19,0L933.81,18.38a67.57,67.57,0,0,1,19.81,48.15,56.31,56.31,0,1,0-58.12,87l-30.83,30.83C831.9,108.82,756.6,55.84,669.15,55.84H284a112.82,112.82,0,0,0-88-42.17h-13v41a112.82,112.82,0,0,0-86.91-41h-13V119.71h13a37.25,37.25,0,0,1,32.74,19.84A211.31,211.31,0,0,0,86.75,242.84H0L1.09,338.2l2.51,3.38C4.66,343,30.09,377,72.4,411.43c25,20.3,50.69,36.5,76.43,48.16,28.2,12.77,56.5,20.09,84.32,21.84v.41h70v28.39l-52.47,64.61H231.55a139.79,139.79,0,0,0,26.63-67H232A114,114,0,0,1,193.29,578l-26.67,22.87h96.44l66.09-81.39V481.84h35.66l.34,9.76A113.91,113.91,0,0,1,325.3,578l-26.68,22.87h94.63l3.49-2.65A164.56,164.56,0,0,0,443.61,542a160.77,160.77,0,0,0,17-60.16H563.15v28.39l-52.47,64.61H491.55a139.79,139.79,0,0,0,26.63-67H492A114,114,0,0,1,453.29,578l-26.67,22.87h96.44l66.09-81.39V481.84h33l0,9.54A114,114,0,0,1,582.3,578l-26.68,22.87h94.63l3.49-2.65A164.56,164.56,0,0,0,700.61,542,160.89,160.89,0,0,0,718,476.21,213.08,213.08,0,0,0,874.3,211.51l72.94-72.94-.19-.2s0,0,.05-.05A55.35,55.35,0,0,0,952.11,132.55Zm-843-37.45V40.66A87.27,87.27,0,0,1,176.63,93.9a213.68,213.68,0,0,0-30,25.26A63.7,63.7,0,0,0,109.15,95.1ZM702.83,452.82l-10.68,1.94v13.62a136,136,0,0,1-50.77,106.46H620.55a139.82,139.82,0,0,0,27.6-83.48l0-27.85-3.8-3.8c-53.42-53.41-53.42-140.33,0-193.74l-18.38-18.39c-56.58,56.58-62.79,144.75-18.62,208.26H460.67c-6.42-84-76.86-150.46-162.52-150.46v26c75.54,0,137,61.46,137,137a136,136,0,0,1-50.77,106.46H363.55a139.78,139.78,0,0,0,27.6-83.46l-1.22-35.54H246.15c-64.16,0-120.71-34.9-156.86-64.19-4.58-3.71-9-7.43-13.12-11.1h39.94v0l1.94,0a88.31,88.31,0,0,0,51.56-16.69l-15.22-21.08a62.24,62.24,0,0,1-39.59,11.69v.09H49.16C38.27,343.14,30.66,333.93,27,329.32l-.69-60.48h84.85A186.68,186.68,0,0,1,182.9,121.58c.1,1.69.17,3.38.17,5.09v31.85h26V40.64a87.15,87.15,0,0,1,74,86h26a112.3,112.3,0,0,0-9.29-44.83H669.15c103.11,0,187,83.89,187,187A186.79,186.79,0,0,1,702.83,452.82Zm183-375.75a30.31,30.31,0,1,1,0,42.87A30.21,30.21,0,0,1,885.85,77.07Z"/></g></g></svg>